<svg xmlns="http://www.w3.org/2000/svg" version="1.1" xmlns:xlink="http://www.w3.org/1999/xlink" viewBox="0 0 1422 800" style="overflow: hidden; display: block;" width="1422" height="800"><defs><linearGradient id="dddraw-gradient" x1="711" y1="-400" x2="711" y2="800" spreadMethod="pad" gradientUnits="userSpaceOnUse"><stop offset="0%" stop-color="hsl(30, 100%, 50%)" stop-opacity="1"></stop><stop offset="100%" stop-color="hsl(30, 100%, 70%)" stop-opacity="1"></stop></linearGradient></defs><g id="two-0" transform="matrix(1 0 0 1 0 0)" opacity="1"></g><path d="M 78.66060593743494 77.2526181823287 Q 78.66060593743494 77.2526181823287 80.66874474328932 100.77119261106697 82.67688354914372 124.28976703980521 81.66160304283784 143.06980317630874 80.64632253653195 161.84983931281226 79.43924573387426 175.48197678411515 78.23216893121656 189.11411425541803 77.82504510973158 196.9328375582608 77.41792128824657 204.75156086110354 76.64295689911907 211.0390916902333 75.86799250999157 217.3266225193631 75.86299257716576 217.326596601466 75.85799264433994 217.32657068356892 75.85299271151413 217.32654476567183 75.84799277868832 217.32651884777474 75.14812442418882 211.02727445953212 74.44825606968932 204.72803007128954 74.16512982860147 196.89784322907605 73.8820035875136 189.06765638686255 72.96668579755503 175.38044534503905 72.05136800759647 161.69323430321555 71.72257929587676 142.79697670421493 71.39379058415705 123.9007191052143 75.01720420080247 100.57632402101311 78.64061781744788 77.25192893681192 78.6506118774414 77.25227355957031 Z" fill="hsl(205, 69%, 50%)"></path><path d="M 78.65464828073068 78.64771117408655 Q 78.65464828073068 78.64771117408655 92.90567549424404 83.5137181388543 107.15670270775739 88.37972510362205 121.27127607229343 91.57146686670785 135.38584943682946 94.76320862979365 150.47643433713566 95.64985493794515 165.56701923744185 96.53650124609665 182.86939262628664 94.15752577884624 200.1717660151314 91.77855031159581 214.1349972371967 89.8481269822469 228.098228459262 87.917703652898 228.0991052301866 87.92262617996707 228.09998200111121 87.92754870703615 228.10085877203582 87.93247123410524 228.10173554296043 87.9373937611743 214.3220429564418 90.94837321492028 200.54235036992318 93.95935266866624 182.97242888287195 97.50622703672519 165.40250739582075 101.05310140478416 149.74936304855692 100.68033734151288 134.09621870129308 100.3075732782416 119.58004165765652 96.73534990670674 105.06386461401995 93.16312653517188 91.85522004408604 85.91456803210517 78.64657547415213 78.66600952903845 78.6506118774414 78.6568603515625 Z" fill="hsl(205, 69%, 50%)"></path><path d="M 1257.0997377405884 50.55515564889335 Q 1257.0997377405884 50.55515564889335 1268.1278411192234 49.67434190263779 1279.1559444978584 48.79352815638224 1290.1960765845336 48.5485255832961 1301.2362086712087 48.30352301020996 1308.764844920427 47.77691052798254 1316.2934811696455 47.25029804575511 1323.5521215446447 46.556373480945865 1330.8107619196437 45.86244891613662 1336.8908219519976 54.08178328869967 1342.9708819843518 62.30111766126272 1342.395368661506 76.63708586259344 1341.8198553386599 90.97305406392417 1341.5215641419227 105.5534881176954 1341.2232729451857 120.13392217146664 1341.171889222172 135.2318601018982 1341.120505499158 150.32979803232976 1341.126007050304 163.6212535870633 1341.1315086014502 176.91270914179685 1342.1746391615204 188.1787985865162 1343.2177697215907 199.44488803123554 1343.6216607098117 205.90407323502558 1344.0255516980328 212.36325843881562 1344.3123854650134 215.93560494685934 1344.599219231994 219.50795145490306 1344.5943081331889 219.5088901287148 1344.5893970343836 219.50982880252653 1344.5844859355784 219.51076747633826 1344.5795748367732 219.51170615015 1343.515505510567 216.0161889508238 1342.4514361843608 212.5206717514976 1341.5769930332822 206.15023602216084 1340.7025498822036 199.7798002928241 1338.7378354086275 188.45983959273224 1336.7731209350513 177.13987889264038 1335.4022893302827 163.8922133431996 1334.0314577255142 150.6445477937588 1332.6419044214886 135.60301175090328 1331.2523511174627 120.56147570804778 1329.7058521404952 106.03261316279338 1328.1593531635278 91.50375061753897 1322.1121377791678 75.28538023038428 1316.0649223948076 59.06700984322958 1308.5093910414869 58.24863834830302 1300.9538596881662 57.430266853376466 1289.8041577904664 56.498772485704144 1278.6544558927667 55.56727811803182 1267.8763580995267 53.07118956098525 1257.0982603062866 50.575101003938684 1257.0989990234375 50.565128326416016 Z" fill="hsl(205, 69%, 50%)"></path><path d="M 1352.6204663557069 570.2649755130899 Q 1352.6204663557069 570.2649755130899 1350.374964110316 583.5777331243464 1348.129461864925 596.8904907356028 1346.35036598211 606.8974374842037 1344.571270099295 616.9043842328044 1344.2867477228665 623.8684601371621 1344.0022253464383 630.8325360415197 1343.4170699412075 637.976787681186 1342.8319145359767 645.1210393208523 1327.0829946240906 647.254211648777 1311.3340747122047 649.3873839767016 1297.4914790498392 646.6415919527217 1283.6488833874737 643.8957999287417 1266.6994617528758 641.6658967260416 1249.750040118278 639.4359935233417 1226.775098857641 636.5627808724414 1203.800157597004 633.6895682215412 1186.802044107071 630.807082323116 1169.803930617138 627.9245964246908 1158.585695852512 625.6634002685207 1147.3674610878857 623.4022041123505 1147.368220893272 623.3972621799578 1147.3689806986586 623.392320247565 1147.369740504045 623.3873783151721 1147.3705003094315 623.3824363827794 1158.7231443599944 624.5914364852633 1170.0757884105572 625.8004365877474 1187.182350717392 627.2825130316058 1204.2889130242268 628.7645894754643 1227.3544069448633 630.4599034238249 1250.4199008654998 632.1552173721857 1267.6884092070604 633.0734952934363 1284.9569175486213 633.9917732146868 1298.4179631330076 634.8528608630995 1311.8790087173938 635.7139485115122 1322.5766168994824 632.5125410814928 1333.2742250815706 629.3111336514735 1334.9891127603028 622.1779111473228 1336.704000439035 615.0446886431721 1339.6293988036566 605.1837639928472 1342.5547971682781 595.3228393425221 1347.5780052500356 582.7911999811224 1352.6012133317931 570.2595606197226 1352.61083984375 570.2622680664062 Z" fill="hsl(205, 69%, 50%)"></path><path d="M 82.87431534504474 504.24773891440344 Q 82.87431534504474 504.24773891440344 84.66254144325393 515.8767807484195 86.45076754146314 527.5058225824356 85.32832193194119 537.1038321964415 84.20587632241926 546.7018418104476 83.89922944765317 556.9458780498419 83.59258257288707 567.1899142892362 82.685575191429 573.7301169316252 81.77856780997094 580.2703195740141 80.53888880332846 583.9423096844125 79.299209796686 587.6142997948109 78.44018148701693 588.7364946390533 77.58115317734784 589.8586894832955 76.4785210645064 590.7426879725406 75.37588895166495 591.6266864617858 74.09373806585643 592.2211105623044 72.81158718004792 592.815534662823 71.42443619099713 593.085836417964 70.03728520194633 593.356138173105 68.6257553903119 593.2866076321595 67.21422557867747 593.217077091214 65.86035512343204 592.8117553724887 64.50648466818662 592.4064336537634 63.28896058380038 591.6888780745946 62.07143649941415 590.9713224954257 61.061021342876764 589.9832374197888 60.05060618633938 588.9951523441518 59.30602533402295 587.7939653230678 58.561444481706516 586.5927783019839 58.125973007731645 585.2483023815557 57.69050153375678 583.9038264611277 57.58944906065143 582.4942026450206 57.48839658754609 581.0845788289135 57.727636289795086 579.6917345195507 57.96687599204408 578.2988902101877 58.53250324691207 577.0037775842716 59.098130501780055 575.7086649583554 67.11509370709616 573.1746447914998 75.13205691241228 570.640624624644 93.79121410481545 568.5429111258602 112.45037129721864 566.4451976270764 129.18551427353438 564.5817147207626 145.92065724985014 562.7182318144489 162.87907822417208 561.464694422304 179.83749919849404 560.211157030159 200.43181873664844 559.5384248324481 221.0261382748028 558.8656926347372 238.65505208798294 558.7948931494695 256.28396590116307 558.7240936642019 274.7421410121192 560.6466397156469 293.20031612307537 562.5691857670918 311.85494460044066 566.6967351601311 330.50957307780595 570.8242845531703 330.50867551739157 570.8292033320129 330.5077779569771 570.8341221108554 330.5068803965627 570.839040889698 330.5059828361483 570.8439596685406 311.74419351380806 568.1439007179945 292.9824041914678 565.4438417674485 274.71065782517564 564.6036695139042 256.4389114588835 563.7634972603597 238.95323054790867 564.7934773435455 221.46754963693382 565.8234574267314 201.2464061034321 567.7407948018522 181.02526256993033 569.6581321769731 164.65796897106554 572.5986147585867 148.29067537220078 575.5390973402002 132.22013165747055 579.7432088229689 116.14958794274033 583.9473203057375 97.72469646008014 585.7803049935299 79.29980497741994 587.6132896813222 78.44088889153024 588.7355704227843 77.58197280564053 589.8578511642464 76.47942909816103 590.7419599122827 75.37688539068152 591.626068660319 74.09479395369371 592.2206209729538 72.81270251670591 592.8151732855887 71.42557856476634 593.0856137544769 70.03845461282678 593.356054223365 68.62691785519593 593.2866648357481 67.21538109756506 593.2172754481312 65.86147011691718 592.8120891184778 64.5075591362693 592.4069027888245 63.289963302412886 591.6894689656516 62.07236746855647 590.9720351424787 61.06185350856376 589.9840511132977 60.05133954857105 588.9960670841167 59.306638581275614 587.7949545271238 58.56193761398018 586.5938419701308 58.126331694590846 585.2494096035724 57.690725775201514 583.904977237014 57.58953234022006 582.4953635332024 57.48833890523861 581.0857498293907 57.7274393218607 579.6928816030218 57.96653973848279 578.3000133766529 58.53203747926027 577.004844194487 59.09753522003774 575.709675012321 60.434769438044185 572.9234101016435 61.77200365605062 570.1371451909661 64.3760226372013 563.1686281212134 66.98004161835198 556.2001110514607 68.37589277713201 550.1045683706591 69.77174393591206 544.0090256898575 72.1019482344559 535.112140036377 74.43215253299977 526.2152543828964 78.64329084739549 515.2304313182309 82.8544291617912 504.2456082535653 82.86437225341797 504.2466735839844 Z" fill="hsl(205, 69%, 50%)"></path><path d="M 1292.2043986383046 224.7377633615562 Q 1292.2043986383046 224.7377633615562 1283.7687927667512 207.86698087149145 1275.3331868951975 190.9961983814267 1264.4315099767387 174.44633574019855 1253.5298330582796 157.89647309897043 1242.2624373761487 146.33884247961652 1230.9950416940178 134.78121186026263 1218.6687077685706 127.81602247677881 1206.3423738431236 120.850833093295 1188.6578720117016 117.01634783502216 1170.9733701802795 113.18186257674932 1156.191650060302 112.70168076920345 1141.4099299403242 112.22149896165757 1127.4709281432679 114.40038285759132 1113.5319263462113 116.57926675352509 1098.7307934331989 121.91606270049128 1083.9296605201862 127.25285864745747 1075.0186278397316 131.6395727535131 1066.107595159277 136.02628685956876 1057.6661850586302 141.9330466821666 1049.224774957983 147.83980650476443 1043.5163359865621 152.77661311616464 1037.8078970151412 157.71341972756483 1026.5527526316785 167.3040494346708 1015.2976082482157 176.89467914177675 1007.7746868978522 180.36091203234378 1000.2517655474886 183.8271449229108 991.8964913891032 185.84055306282454 983.5412172307176 187.85396120273825 977.1005057545192 188.91091596336707 970.6597942783209 189.96787072399587 954.125120604655 187.5640480615558 937.5904469309891 185.16022539911577 929.7821408422268 181.815608724931 921.9738347534645 178.47099205074622 913.71986648642 172.3048635734969 905.4658982193753 166.1387350962476 905.4685407178811 166.13449042881098 905.4711832163867 166.1302457613744 905.4738257148924 166.12600109393782 905.4764682133982 166.1217564265012 914.8258679647884 168.76265530963624 924.1752677161784 171.40355419277128 931.9311070308233 172.8993341933143 939.6869463454683 174.39511419385732 948.7631249887945 175.30516051860303 957.8393036321206 176.21520684334877 969.4012570280262 175.77120782532893 980.9632104239317 175.32720880730906 988.4224405199782 174.0796228231601 995.8816706160247 172.83203683901115 1002.7654678296278 170.5256656856554 1009.649265043231 168.21929453229967 1021.7312329177036 160.21422458541852 1033.813200792176 152.20915463853737 1040.3676106706498 148.26228715528106 1046.9220205491235 144.31541967202472 1055.932308741887 138.82103345302494 1064.9425969346503 133.3266472340252 1074.2905866633228 129.89036842798077 1083.6385763919952 126.45408962193638 1098.4975240670947 120.98513665003664 1113.356471742194 115.5161836781369 1127.3988233969449 113.17332205308901 1141.4411750516956 110.83046042804114 1156.3918114566504 111.11281723553385 1171.3424478616055 111.39517404302657 1189.4105711600798 115.05586721116578 1207.4786944585542 118.71656037930498 1220.3662650781757 125.58643832669418 1233.2538356977975 132.45631627408338 1245.2069869002032 143.95016872271884 1257.160138102609 155.44402117135428 1268.589607805854 172.2293961666923 1280.0190775090994 189.0147711620303 1286.1209624822723 206.87240587777612 1292.2228474554454 224.73004059352192 1292.213623046875 224.73390197753906 Z" fill="hsl(205, 69%, 50%)"></path><path d="M 157.29983694248435 182.58984950966016 Q 157.29983694248435 182.58984950966016 167.45941708723262 169.0386348945575 177.61899723198087 155.48742027945485 189.26928689452035 145.10906632628354 200.91957655705986 134.7307123731122 214.17314596476857 127.97621137187795 227.42671537247728 121.22171037064372 245.6995783349078 118.83053174460635 263.9724412973383 116.43935311856897 278.64214863987917 119.54638842040714 293.31185598242 122.65342372224532 307.2169258498724 130.09260214051687 321.12199571732475 137.53178055878843 333.8786296991867 147.99540260119568 346.6352636810486 158.45902464360293 362.93328018767045 173.00842297307815 379.2312966942923 187.5578213025534 391.40288735857143 200.2186814152296 403.57447802285054 212.87954152790581 412.76693133044125 222.30668674027777 421.9593846380319 231.73383195264972 428.9939167733902 236.46917106453856 436.0284489087485 241.20451017642742 442.4935752437829 241.85590082036344 448.95870157881734 242.50729146429947 460.03069890433324 235.35597571036988 471.1026962298491 228.2046599564403 471.10564821686535 228.20869551992712 471.10860020388156 228.2127310834139 471.1115521908978 228.21676664690068 471.11450417791406 228.2208022103875 460.164981340391 237.17807744057808 449.21545850286793 246.1353526707687 441.87170941407 244.7825208930918 434.52796032527203 243.4296891154149 428.07425394327197 237.74824084424625 421.6205475612719 232.06679257307758 412.3782115667601 222.68481974575312 403.1358755722484 213.30284691842866 390.9347244761808 200.71019177053702 378.7335733801132 188.1175366226454 362.3881858481436 173.6520719539095 346.04279831617396 159.1866072851736 333.3001314351736 148.88804611976107 320.55746455417324 138.58948495434853 306.7696963102493 131.38230775639198 292.98192806632534 124.1751305584354 278.59817979696504 121.32499192569153 264.21443152760475 118.47485329294769 246.43169803360888 121.07002788896456 228.64896453961305 123.66520248498144 215.97585891399083 130.54362060715837 203.30275328836862 137.4220387293353 191.95556783227102 147.71920169625372 180.60838237617344 158.0163646631721 168.961752575243 170.30955579452942 157.31512277431253 182.60274692588672 157.30747985839844 182.59629821777344 Z" fill="hsl(205, 69%, 50%)"></path><path d="M 186.81260720068232 404.516285612074 Q 186.81260720068232 404.516285612074 196.17081794102575 419.7894359064808 205.52902868136914 435.06258620088755 215.43409143457524 447.71624859227836 225.33915418778136 460.36991098366923 238.22377827128534 471.4790085925789 251.10840235478932 482.58810620148853 269.4019505367379 491.39607360929614 287.69549871868645 500.20404101710375 301.9074384324799 504.4159932314073 316.11937814627333 508.62794544571085 328.15034209661627 508.3427515514406 340.1813060469592 508.0575576571703 355.76897142515065 503.6064208494847 371.35663680334216 499.15528404179906 384.85700703222415 492.45343320413645 398.3573772611061 485.7515823664738 412.5968609124948 477.6680879387578 426.8363445638835 469.5845935110419 445.8210027564172 458.4875661651098 464.8056609489509 447.3905388191778 481.7777517990986 439.05476251699724 498.7498426492464 430.71898621481665 514.0561927887643 423.58435475219335 529.3625429282822 416.44972328957004 539.1086389576132 412.2299436344396 548.8547349869441 408.0101639793092 548.8567440779088 408.01474257663756 548.8587531688736 408.0193211739659 548.8607622598383 408.0238997712943 548.8627713508031 408.02847836862264 539.1612307839318 412.342332088334 529.4596902170606 416.65618580804534 514.2094818788416 423.8997424217961 498.9592735406228 431.1432990355468 482.0400458735313 439.53562309574454 465.1208182064399 447.9279471559422 446.1683515732544 459.08826683970995 427.21588494006903 470.2485865234776 413.00189129013336 478.4291569272473 398.7878976401977 486.609727331017 385.2456783118504 493.47208198781965 371.70345898350314 500.3344366446223 355.9670187341608 504.9951977892172 340.23057848481835 509.655958933812 327.9661704651597 509.90694790807385 315.701762445501 510.1579368823357 301.2529500113586 506.1298586678178 286.8041375772163 502.1017804532999 268.0658360791643 493.42178492081996 249.3275345811123 484.74178938834 235.88874052968853 473.70597197058487 222.44994647826476 462.6701545528298 212.22464690198785 449.8226608239204 201.99934732571091 436.97516709501093 194.39717255274866 420.7504673527966 186.79499777978643 404.52576761058225 186.80380249023438 404.5210266113281 Z" fill="hsl(205, 69%, 50%)"></path><path d="M 1290.8174025249225 473.35131117602464 Q 1290.8174025249225 473.35131117602464 1286.885102275321 481.2290938662718 1282.9528020257196 489.106876556519 1279.0715216011215 495.89944511004774 1275.1902411765234 502.69201366357646 1263.021696672562 514.5817167050336 1250.8531521686004 526.4714197464907 1237.600182764293 535.6737407494654 1224.3472133599857 544.8760617524403 1205.0168125573095 549.902276590641 1185.6864117546334 554.9284914288418 1168.1706721371465 555.6678795153096 1150.6549325196595 556.4072676017772 1132.229481612229 551.7555246140238 1113.8040307047982 547.1037816262703 1099.12227512348 539.382676210273 1084.440519542162 531.6615707942756 1069.7472064525832 519.4257136437358 1055.0538933630046 507.1898564931959 1046.0489149276427 498.3116842177455 1037.043936492281 489.43351194229507 1030.924265181731 484.3704168350346 1024.804593871181 479.3073217277741 1017.1424458735679 473.39997995168267 1009.4802978759549 467.4926381755913 1007.2505155927395 466.2263834942937 1005.020733309524 464.9601288129961 1005.0226049180235 464.9554923184556 1005.024476526523 464.95085582391505 1005.0263481350225 464.9462193293745 1005.0282197435221 464.941582834834 1007.6153195635161 465.6197534961862 1010.2024193835102 466.29792415753843 1018.2971277551974 471.9300388170998 1026.3918361268845 477.5621534766612 1032.020569122241 483.1847866987567 1037.6493021175977 488.80741992085217 1046.7859907531192 497.4708446048699 1055.9226793886405 506.13426928888765 1070.6133992565165 518.0698275197711 1085.3041191243922 530.0053857506546 1099.8544545321215 537.3510861292974 1114.404789939851 544.6967865079403 1132.4552953117968 548.8918662653881 1150.5058006837428 553.086946022836 1167.506966753484 551.8385079456689 1184.5081328232254 550.5900698685017 1202.686647860902 545.2380148214494 1220.8651628985785 539.8859597743971 1233.1576937137593 530.3698540770063 1245.45022452894 520.8537483796156 1257.2826171797483 509.60363020973466 1269.1150098305568 498.3535120398537 1274.1985019737076 492.50655519894275 1279.2819941168584 486.6595983580318 1285.041377827218 479.99990775115987 1290.8007615375775 473.34021714428786 1290.80908203125 473.34576416015625 Z" fill="hsl(205, 69%, 50%)"></path><path d="M 1200.9234208655816 377.8400017112624 Q 1200.9234208655816 377.8400017112624 1194.1122382008543 390.0902013607654 1187.3010555361268 402.3404010102684 1174.4706603259012 410.31250403916715 1161.6402651156757 418.28460706806595 1140.6377709576864 423.000578857614 1119.635276799697 427.7165506471621 1119.6338082168195 427.71177118439607 1119.6323396339417 427.7069917216301 1119.6308710510639 427.70221225886417 1119.6294024681863 427.69743279609816 1138.7811398737651 420.0752360871301 1157.932877279344 412.4530393781621 1169.2710439282491 404.69640020811676 1180.6092105771543 396.9397610380715 1190.7584221995362 387.38374196809207 1200.9076338219184 377.8277228981126 1200.91552734375 377.8338623046875 Z" fill="hsl(205, 69%, 50%)"></path><path d="M 938.2573945456662 341.3245993412958 Q 938.2573945456662 341.3245993412958 926.9144193473619 341.9323489980851 915.5714441490577 342.5400986548744 902.3444404590766 342.9599935201697 889.1174367690954 343.379888385465 875.1411953448942 345.3537745370776 861.164953920693 347.3276606886901 849.2900128358181 352.7460916128896 837.4150717509432 358.164522537089 824.6673402634049 369.20743519047335 811.9196087758667 380.25034784385775 804.444656128564 392.5159326030547 796.9697034812613 404.7815173622517 793.3060886659676 418.00874216527177 789.642473850674 431.23596696829185 790.810744633198 444.1023164961658 791.9790154157221 456.9686660240398 793.5360768328358 463.6168937368677 795.0931382499496 470.2651214496957 798.5500922811722 475.62658355805513 802.0070463123948 480.9880456664145 802.0029922273807 480.9909721651244 801.9989381423667 480.9938986638342 801.9948840573527 480.99682516254404 801.9908299723386 480.9997516612539 797.8277129804121 475.8051128436381 793.6645959884856 470.6104740260222 792.4946649821052 463.82275704802146 791.3247339757248 457.0350400700208 789.877157322224 443.98839265474555 788.4295806687231 430.9417452394703 791.9132732132883 417.40303205183136 795.3969657578535 403.8643188641924 802.838945524373 391.1576921345685 810.2809252908926 378.45106540494464 823.1302211281566 366.84195556395275 835.9795169654207 355.2328457229608 848.2267532831136 349.1595129396893 860.4739896008066 343.08618015641787 874.7509011183092 340.8245019722074 889.0278126358118 338.56282378799693 902.3720883571466 338.5183221002527 915.7163640784813 338.4738204125085 926.9872362312512 339.88921624849695 938.2581083840213 341.3046120844854 938.2577514648438 341.3146057128906 Z" fill="hsl(205, 69%, 50%)"></path><path d="M 1184.0561254706965 285.1401626392547 Q 1184.0561254706965 285.1401626392547 1174.8582983248918 282.6094652246371 1165.6604711790872 280.07876781001954 1150.2355218314274 274.4726512560786 1134.8105724837674 268.86653470213764 1122.057576043314 263.8874905576199 1109.3045796028603 258.9084464131021 1098.4945295352986 256.10665976139256 1087.6844794677372 253.30487310968303 1076.7967150264644 253.65426671627486 1065.9089505851914 254.0036603228667 1058.6635390822394 255.8234829223004 1051.4181275792876 257.6433055217341 1051.4165149821192 257.63857270752135 1051.4149023849507 257.63383989330856 1051.413289787782 257.6291070790958 1051.4116771906138 257.62437426488304 1058.5376125379812 254.54749224099425 1065.6635478853484 251.47061021710547 1077.1888186571432 249.7999417762888 1088.7140894289378 248.1292733354721 1100.235419894881 250.07601604745435 1111.756750360824 252.02275875943658 1124.9435285442414 256.316401575616 1138.1303067276585 260.61004439179544 1153.3349482918638 267.320398270136 1168.539589856069 274.03075214847655 1176.3021569973737 279.57642878781405 1184.0647241386785 285.12210542715155 1184.0604248046875 285.1311340332031 Z" fill="hsl(50, 98%, 50%)"></path><path d="M 736.0054230961673 88.49474235749324 Q 736.0054230961673 88.49474235749324 727.6744902516945 103.18523016425542 719.3435574072216 117.87571797101761 709.8044346192974 129.7458341050249 700.265311831373 141.6159502390322 688.6684161935781 153.7734558302194 677.0715205557832 165.93096142140658 666.7281042708465 174.27669813027006 656.3846879859099 182.62243483913352 645.4231123839234 187.14147548743875 634.4615367819368 191.66051613574396 621.5480284270325 192.03154032306327 608.6345200721281 192.40256451038258 599.872656801406 190.3108598272731 591.110793530684 188.21915514416364 583.9615306018197 182.7487896920493 576.8122676729556 177.27842423993496 576.8150759953787 177.274287414441 576.8178843178019 177.27015058894705 576.8206926402252 177.2660137634531 576.8235009626483 177.26187693795913 584.2530559021707 181.68847745240504 591.682610841693 186.11507796685098 600.1209180322019 188.30709831621556 608.5592252227108 190.49911866558014 620.9141197338464 189.54755602960768 633.269014244982 188.5959933936352 643.7560380738892 184.3020951255209 654.2430619027963 180.00819685740663 663.9617654874256 171.41825331773242 673.680469072055 162.82830977805824 684.5843377298381 150.33974241542518 695.4882063876213 137.85117505279214 704.6862801786765 125.93637146233502 713.8843539697316 114.0215678718779 724.9367188547509 101.25238828209467 735.9890837397702 88.48320869231145 735.9972534179688 88.48897552490234 Z" fill="hsl(50, 98%, 50%)"></path><path d="M 432.61031384823497 162.9413146510383 Q 432.61031384823497 162.9413146510383 419.5022837961944 170.05069861339535 406.3942537441538 177.1600825757524 389.6119533795211 191.00375195795408 372.8296530148883 204.8474213401558 358.13980324377985 220.51220334437645 343.4499534726714 236.1769853485971 332.6947626356131 253.19378821025725 321.9395717985548 270.2105910719174 314.8305277425711 286.6569221552387 307.7214836865875 303.10325323856 302.90195470414733 318.92204241819167 298.0824257217071 334.74083159782333 296.0999860769291 344.3185612809119 294.11754643215113 353.89629096400057 293.04471615371546 358.7383590413589 291.9718858752798 363.5804271187171 291.9669553991856 363.5795962122937 291.9620249230914 363.57876530587026 291.9570944469972 363.5779343994468 291.95216397090303 363.5771034930234 292.52829816217377 358.6344597559204 293.1044323534445 353.6918160188173 295.00190910797573 344.04734098738743 296.8993858625069 334.4028659559576 301.20907193726475 318.2952219521866 305.51875801202266 302.18757794841554 312.28892674572387 285.32000252655666 319.059095479425 268.4524271046978 329.55893607133567 250.79102430217029 340.05877666324625 233.12962149964278 354.4771885293486 216.60703144761763 368.89560039545097 200.08444139559248 386.3975078898576 185.70117973035462 403.89941538426416 171.31791806511674 418.25105711567085 167.12036957813297 432.60269884707753 162.9228210911492 432.60650634765625 162.93206787109375 Z" fill="hsl(50, 98%, 50%)"></path><path d="M 428.39325630122187 363.7780082064723 Q 428.39325630122187 363.7780082064723 443.79331015594414 363.54290472782543 459.1933640106664 363.30780124917857 486.3831986193014 365.8636543774336 513.5730332279364 368.4195075056886 538.0589452793013 373.15851182511136 562.5448573306661 377.8975161445341 582.2758582594579 384.4755430070052 602.0068591882497 391.0535698694763 620.1390304687503 403.6607315689687 638.271201749251 416.2678932684611 650.3817120212115 429.7675057116494 662.492222293172 443.26711815483765 671.2167506118058 456.3103317615601 679.9412789304395 469.3535453682826 685.776757626345 479.26865882171796 691.6122363222504 489.18377227515333 695.8974015842057 494.8300560359327 700.1825668461609 500.4763397967121 707.3626184620867 500.8703862327169 714.5426700780126 501.2644326687216 714.5460336047076 501.26813222115015 714.5493971314027 501.27183177357875 714.5527606580977 501.27553132600735 714.5561241847927 501.2792308784359 706.2815863485412 501.6337479955671 698.0070485122897 501.98826511269834 694.1724468832242 495.95498882426006 690.3378452541587 489.92171253582177 684.6692833160907 479.9568014536438 679.000721378023 469.9918903714658 670.158555971499 457.16211138979656 661.316390564975 444.33233240812734 649.1964342421251 431.1601347542037 637.0764779192751 417.9879371002801 619.0993223544497 405.84436470753303 601.1221667896242 393.700792314786 581.4978050929244 387.6495571472635 561.8734433962246 381.5983219797411 537.4660002005687 377.52499265954214 513.0585570049128 373.45166333934316 486.01554861504314 370.4752002406389 458.9725402251735 367.49873714193467 443.68237267486643 365.6483588524968 428.3922051245594 363.79798056305896 428.3927307128906 363.7879943847656 Z" fill="hsl(50, 98%, 50%)"></path><path d="M 838.5351365217682 667.1883012326812 Q 838.5351365217682 667.1883012326812 830.0157467857778 671.1610118169126 821.4963570497872 675.1337224011439 799.3475191264813 682.9961227850474 777.1986812031753 690.8585231689509 752.89456445827 695.6419269102701 728.5904477133646 700.4253306515893 699.949860727291 701.4312646942532 671.3092737412173 702.437198736917 640.5094648307722 697.8838809588817 609.709655920327 693.3305631808464 586.9659017316529 686.7930620480415 564.2221475429789 680.2555609152367 548.5753267336544 673.2294528307409 532.9285059243299 666.2033447462452 525.5186280808157 661.5653957454464 518.1087502373016 656.9274467446476 518.1113103062187 656.9231518584861 518.1138703751358 656.9188569723246 518.1164304440529 656.9145620861632 518.11899051297 656.9102672000017 525.6784317368501 661.1951364099216 533.2378729607302 665.4800056198414 549.0123327551779 671.8474706862553 564.7867925496256 678.2149357526692 587.4706343530535 684.1885326070692 610.1544761564813 690.1621294614692 640.6353690404119 694.1431535696879 671.1162619243426 698.1241776779066 699.2506481113865 696.4069539000834 727.3850342984305 694.6897301222602 751.1545202747395 689.2650983725898 774.9240062510485 683.8404666229193 797.4778886265096 677.1855971475088 820.0317710019707 670.5307276720984 829.2804217322887 668.8499851923648 838.5290724626068 667.1692427126313 838.5321044921875 667.1787719726562 Z" fill="hsl(50, 98%, 50%)"></path><path d="M 358.16339111328125 664.3795678710937 Q 358.16339111328125 664.3795678710937 344.0297667427211 666.2228075290092 329.89614237216097 668.0660471869246 317.9015521431102 668.6929157405982 305.9069619140595 669.3197842942719 295.25906161293085 670.4409556754056 284.6111613118022 671.5621270565393 276.71224649902126 673.5709930063902 268.8133316862403 675.579858956241 260.59090057834055 681.9545278534508 252.36846947044077 688.3291967506607 249.52438868959945 693.967932997497 246.68030790875812 699.6066692443331 244.2367361424965 706.902914257184 241.7931643762349 714.1991592700348 239.269453303558 723.2430818224917 236.74574223088115 732.2870043749487 235.19871247763052 738.9032637481636 233.65168272437992 745.5195231213785 230.26699697538942 753.396892936518 226.88231122639888 761.2742627516575 220.61365047199197 764.3375161458757 214.34498971758507 767.4007695400941 206.81276209471014 767.5500863600378 199.28053447183518 767.6994031799816 191.93650576269587 765.7441878828482 184.59247705355656 763.7889725857149 174.65191902124238 755.8953273192978 164.7113609889282 748.0016820528808 157.28424467210436 739.0000989984262 149.85712835528057 729.9985159439715 144.4537105250804 720.6462749180541 139.05029269488023 711.2940338921368 139.05413282557362 711.2908317996557 139.05797295626704 711.2876297071746 139.06181308696046 711.2844276146934 139.06565321765385 711.2812255222124 146.9782128297791 717.8982589599539 154.89077244190435 724.5152923976954 163.59278129957784 730.2845931053885 172.29479015725136 736.0538938130817 186.23499284206696 741.5722821636941 200.17519552688256 747.0906705143066 209.2876098450377 744.1368147640096 218.40002416319285 741.1829590137125 220.50971619349332 734.936345979002 222.61940822379376 728.6897329442914 224.89910179290518 718.8700544898189 227.17879536201664 709.0503760353464 230.33638224422987 700.4665064604311 233.4939691264431 691.8826368855158 238.12811524510371 684.8606212645386 242.76226136376434 677.8386056435613 254.7486542834589 671.5203982488649 266.7350472031535 665.2021908541685 275.2684609419868 663.9557528384508 283.8018746808201 662.7093148227332 294.7153670927614 661.8719793145235 305.62885950470275 661.034643806314 317.76243171690567 660.8538661807884 329.8960039291086 660.6730885552629 344.0296975211949 662.5163282131783 358.16339111328125 664.3595678710938 358.16339111328125 664.3695678710938 Z" fill="hsl(50, 98%, 50%)"></path><path d="M 219.11503332850282 105.35220934871063 Q 219.11503332850282 105.35220934871063 208.31576531426822 115.71136587499258 197.51649730003365 126.07052240127453 187.07553712175502 133.5629519464037 176.6345769434764 141.05538149153284 167.24240820722918 149.06803041148603 157.85023947098193 157.08067933143923 152.77931609803778 163.9748691149448 147.70839272509366 170.8690588984504 146.08050835667035 181.66220634179274 144.45262398824707 192.45535378513512 152.51943915616454 201.09792550076472 160.58625432408198 209.74049721639432 166.11903358951895 213.33390922428865 171.65181285495595 216.92732123218298 180.33841332205347 228.00356710703358 189.025013789151 239.07981298188417 189.58759538216322 247.37385336361137 190.15017697517547 255.66789374533857 185.15332721109087 264.42929569843864 180.15647744700627 273.19069765153864 166.04907333064847 278.1816886081553 151.9416692142907 283.17267956477195 137.47981295936245 284.0526049924685 123.01795670443418 284.93253042016505 108.24497962078254 282.06811117616286 93.4720025371309 279.20369193216067 78.3847322141007 271.424308639728 63.29746189107048 263.64492534729527 52.755614741100025 256.0013136238099 42.21376759112957 248.35770190032446 36.62086990057226 243.45440892452177 31.027972210014944 238.55111594871906 31.03107690457065 238.54719665392076 31.034181599126356 238.5432773591225 31.03728629368206 238.53935806432423 31.040390988237768 238.53543876952594 37.038204111717036 242.81380183474192 43.03601723519631 247.09216489995788 54.0654609036966 253.4511565163234 65.09490457219688 259.81014813268894 79.86005369009536 265.9748337482464 94.62520280799383 272.1395193638039 108.28609473322828 273.57984506300477 121.94698665846273 275.0201707622056 134.48156215784135 272.7266240290335 147.01613765721999 270.4330772958613 156.5229703123988 266.056772270218 166.02980296757764 261.6804672445747 169.59959490237952 253.79597347175695 173.16938683718138 245.91147969893922 168.04158639484018 237.4026814573574 162.91378595249898 228.8938832157756 157.23838279069503 224.31950798959136 151.56297962889104 219.74513276340713 141.74093024407415 205.8686947462805 131.91888085925723 191.9922567291539 133.00332942711506 185.24624173138426 134.0877779949729 178.50022673361462 137.63706508988088 172.0838061921806 141.1863521847889 165.66738565074658 147.22133021831172 158.877501431572 153.25630825183453 152.0876172123974 162.3943790094342 143.10505204832137 171.53244976703385 134.12248688424535 181.88815277768956 126.3303803966978 192.24385578834526 118.53827390915026 205.67370993597592 111.93704930902841 219.10356408360656 105.33582470890656 219.1092987060547 105.3440170288086 Z" fill="hsl(50, 98%, 50%)"></path><path d="M 922.8009431951903 54.77117908657685 Q 922.8009431951903 54.77117908657685 930.9954997317927 45.76630315423911 939.1900562683952 36.76142722190137 948.9052267348388 31.005144197550592 958.6203972012826 25.24886117319981 967.1862486941375 22.31222387925593 975.7521001869923 19.375586585312053 983.6512705391198 20.500108273694643 991.5504408912473 21.624629962077236 999.4359677726601 31.02477181135709 1007.3214946540729 40.424913660636946 1011.5160138828444 55.140307363380515 1015.710533111616 69.85570106612408 1017.9258044480946 82.84164012042929 1020.1410757845733 95.8275791747345 1021.4753433202279 106.18264707511145 1022.8096108558826 116.5377149754884 1023.7528765163722 124.98583135139887 1024.696142176862 133.43394772730935 1027.0113336026789 141.40430520761038 1029.3265250284956 149.37466268791138 1038.7747681856047 152.60359333664798 1048.2230113427138 155.8325239853846 1056.771874085955 152.5366167296982 1065.320736829196 149.2407094740118 1070.3390209949573 144.85435132375744 1075.3573051607186 140.4679931735031 1080.4739518864849 133.33985095168327 1085.590598612251 126.21170872986345 1085.5954073693051 126.21307834864066 1085.600216126359 126.21444796741788 1085.605024883413 126.2158175861951 1085.6098336404673 126.21718720497232 1083.7237227323412 136.0745643275181 1081.837611824215 145.93194145006385 1077.1932964618616 152.85567809111947 1072.5489810995082 159.7794147321751 1065.572379515765 164.55599084580456 1058.5957779320217 169.332566959434 1051.3228348490259 169.66888068405814 1044.04989176603 170.00519440868229 1037.2704098756285 167.51480767767055 1030.490927985227 165.02442094665884 1024.3462791900429 159.84079817198625 1018.2016303948589 154.65717539731367 1017.1587902568549 144.29591464257993 1016.115950118851 133.93465388784617 1016.0818891981318 125.6161415654611 1016.0478282774126 117.29762924307605 1015.0825038572816 107.20503915676959 1014.1171794371508 97.11244907046313 1010.921646171781 84.79012104514675 1007.7261129064112 72.46779301983037 1002.990015091771 59.93981922163755 998.2539172771308 47.41184542344473 988.0724988265557 38.40410491252723 977.8910803759807 29.396364401609734 970.2198982813798 30.947667878977377 962.548716186779 32.49897135634502 953.0622935212036 37.30254897037429 943.5758708556282 42.106126584403555 933.1947758419377 48.44636245130593 922.8136808282472 54.786598318208306 922.8073120117188 54.77888870239258 Z" fill="hsl(50, 98%, 50%)"></path><path d="M 1227.606424895183 611.0045649620301 Q 1227.606424895183 611.0045649620301 1215.395011220734 618.0037072305265 1203.183597546285 625.0028494990229 1189.3659296374765 631.4499260811222 1175.548261728668 637.8970026632214 1163.4997631434483 643.8142196422807 1151.4512645582286 649.7314366213401 1143.7169652813006 654.3274472833568 1135.9826660043727 658.9234579453735 1130.5592281791332 664.0199661504251 1125.1357903538938 669.1164743554768 1127.9249075208877 676.5841647440291 1130.7140246878816 684.0518551325814 1135.4170288584928 689.8560707810029 1140.120033029104 695.6602864294246 1148.1087103375817 702.5220227837017 1156.0973876460591 709.3837591379787 1170.3063818482551 716.3951131501517 1184.5153760504509 723.4064671623248 1199.5176290109375 729.5712320946275 1214.5198819714242 735.7359970269301 1229.739025883916 741.3706056687248 1244.9581697964074 747.0052143105195 1260.331633728998 754.4983775217963 1275.7050976615885 761.9915407330732 1283.636151206515 766.0244116301856 1291.5672047514415 770.0572825272978 1296.3093364132749 778.1910979312094 1301.0514680751082 786.3249133351209 1292.9093618006975 789.8189983415439 1284.7672555262868 793.3130833479668 1284.7648581197573 793.3086955874978 1284.7624607132277 793.304307827029 1284.7600633066982 793.2999200665602 1284.7576659001686 793.2955323060912 1291.2387989248123 788.7996986223825 1297.719931949456 784.3038649386737 1293.6369194290617 779.0349039763288 1289.5539069086674 773.7659430139839 1281.9461326680607 769.3706661614488 1274.338358427454 764.9753893089135 1258.8508239055736 758.3385659148614 1243.3632893836932 751.7017425208094 1227.7755559010143 746.8932035377032 1212.1878224183351 742.0846645545971 1196.5103764986404 736.9795599317564 1180.8329305789457 731.8744553089157 1164.6614694656414 725.6707942717624 1148.4900083523373 719.4671332346092 1138.204396556789 712.3375643602324 1127.9187847612407 705.2079954858557 1121.9288959113496 697.0947673058272 1115.9390070614586 688.9815391257988 1115.8591924566274 675.0715185644872 1115.7793778517962 661.1614980031754 1123.8719077866192 656.3343449427604 1131.9644377214422 651.5071918823453 1140.0796885637235 647.5186556332415 1148.1949394060048 643.5301193841377 1160.1373399983363 636.8496956819304 1172.0797405906678 630.1692719797229 1186.2063356823476 624.0777714820492 1200.3329307740273 617.9862709843756 1213.9659140722347 614.4861533041415 1227.598897370442 610.9860356239074 1227.6026611328125 610.9953002929688 Z" fill="hsl(50, 98%, 50%)"></path><path d="M 1247.260845703125 397.49007739257814 Q 1247.260845703125 397.49007739257814 1256.2613994541994 389.32297560221036 1265.2619532052736 381.15587381184264 1277.7749003727802 363.5636615316738 1290.2878475402867 345.97144925150496 1298.3858614287028 329.9669070345541 1306.4838753171186 313.96236481760315 1310.4790227650815 299.28570940635126 1314.4741702130445 284.6090539950994 1309.8509859367891 269.6842045472377 1305.2278016605335 254.75935509937602 1295.7550224820832 243.916098200838 1286.2822433036329 233.07284130229996 1275.8574376775973 226.77361248255863 1265.4326320515618 220.4743836628173 1257.2751959935347 217.60777505586734 1249.1177599355076 214.74116644891737 1241.615554413686 212.6144801183006 1234.1133488918642 210.48779378768384 1232.6622777478503 210.06447758522734 1231.2112066038364 209.64116138277086 1231.2119855198707 209.63622242642242 1231.2127644359048 209.631283470074 1231.2135433519388 209.6263445137256 1231.214322267973 209.62140555737716 1232.7472471599442 209.66869127858695 1234.2801720519153 209.71597699979677 1242.047247219618 211.30199788703186 1249.8143223873205 212.88801877426695 1257.9344283463904 216.15178328244906 1266.0545343054603 219.41554779063117 1276.8269797145979 225.64040299379934 1287.5994251237355 231.86525819696752 1297.5973578249207 242.8891410662589 1307.5952905261058 253.91302393555026 1312.679423781437 269.5367116841093 1317.7635570367684 285.1603994326684 1314.1942787088697 300.5555423219331 1310.6250003809707 315.9506852111978 1302.824626759087 332.69684932979146 1295.0242531372032 349.44301344838516 1281.531293398582 367.1041739137302 1268.0383336599607 384.7653343790753 1257.655589681543 391.1357058858267 1247.272845703125 397.5060773925781 1247.266845703125 397.4980773925781 Z" fill="hsl(230, 55%, 40%)"></path><path d="M 554.8049370413851 120.80445342567694 Q 554.8049370413851 120.80445342567694 541.3971416078183 121.34690972070854 527.9893461742515 121.88936601574014 511.87637255207767 121.71440105023463 495.7633989299039 121.53943608472912 476.8608346916234 121.92123092734954 457.9582704533429 122.30302576996995 437.5058823330927 126.92156034320834 417.05349421284245 131.54009491644672 403.3544654360728 135.25907352569573 389.6554366593031 138.9780521349447 382.58890773311384 141.72254729350766 375.5223788069245 144.46704245207061 375.5204090952945 144.46244677626672 375.5184393836645 144.45785110046282 375.5164696720345 144.45325542465892 375.51449996040446 144.44865974885502 382.4266932805425 141.2018594035175 389.3388866006806 137.95505905817996 402.83001971554506 133.27784169633725 416.3211528304096 128.60062433449457 437.0417365381313 122.96502021569967 457.762320245853 117.32941609690475 476.8272936238254 116.38769514143328 495.89226700179785 115.4459741859618 512.1049768017126 115.95750101504247 528.3176866016274 116.46902784412313 541.5619167723087 118.62675894994575 554.8061469429899 120.78449005576837 554.8055419921875 120.79447174072266 Z" fill="hsl(230, 55%, 40%)"></path><path d="M 1189.7708949511737 682.583075204759 Q 1189.7708949511737 682.583075204759 1179.5302456483284 686.6951595017017 1169.2895963454832 690.8072437986445 1155.14455844015 696.6495611969311 1140.9995205348166 702.4918785952177 1130.4153698753323 706.6900017055533 1119.831219215848 710.8881248158889 1118.478003535219 711.2057324761031 1117.1247878545898 711.5233401363174 1115.740997467959 711.3922238902026 1114.357207081328 711.2611076440877 1113.0877252074608 710.6949953972232 1111.8182433335937 710.1288831503589 1110.7959850597947 709.1870470044307 1109.7737267859957 708.2452108585026 1109.1057228233817 707.02626130661 1108.4377188607677 705.8073117547173 1108.1939094005602 704.4388731367147 1107.9500999403529 703.0704345187122 1108.1560118973953 701.6957827191375 1108.3619238544375 700.3211309195626 1108.9959981924717 699.0841923447038 1109.630072530506 697.847253769845 1110.6259214989605 696.87753621501 1111.621770467415 695.9078186601749 1112.875128416414 695.3068518093355 1114.1284863654134 694.7058849584962 1115.5081263868426 694.5365901995751 1116.8877664082718 694.367295440654 1118.2492398276977 694.6473979795998 1119.6107132471238 694.9275005185456 1120.8114734381386 695.6276735455906 1122.0122336291533 696.3278465726357 1122.9265606827876 697.3747817870208 1123.840887736422 698.4217170014059 1124.3730513688015 699.7058000098208 1124.9052150011812 700.9898830182357 1124.9994975395184 702.3766699907344 1125.0937800778556 703.763456963233 1124.7403101154982 705.1077509377186 1124.3868401531406 706.4520449122042 1123.6226260884546 707.613097954689 1122.8584120237683 708.7741509971738 1121.7634672710592 709.6304005476213 1120.6685225183498 710.4866500980689 1119.3574880822634 710.9484466025194 1118.0464536461768 711.4102431069699 1116.6565951782509 711.4292363495051 1115.2667367103252 711.4482295920402 1113.9435727590387 711.0224309751527 1112.6204088077523 710.5966323582652 1111.5024749880863 709.7706231095433 1110.3845411684201 708.9446138608213 1109.5888854463997 707.8048773666512 1108.793229724379 706.6651408724811 1108.403157464132 705.3310078446636 1108.0130852038849 703.9968748168463 1108.0694370740284 702.6080293355711 1108.1257889441722 701.2191838542959 1108.622664889027 699.9210384080719 1109.1195408338815 698.6228929618479 1110.0049178108584 697.551363721572 1110.8902947878355 696.479834481296 1112.0714735937286 695.7471108412813 1113.2526523996216 695.0143872012665 1113.2514618692917 695.0148805937813 1113.2502713389615 695.0153739862963 1123.435020482639 690.6025733486155 1133.6197696263164 686.1897727109347 1147.4391955271353 679.3723862823169 1161.2586214279543 672.5549998536992 1171.2089511290153 667.7830814650952 1181.1592808300763 663.011163076491 1182.392847089889 662.6381135150016 1183.6264133497018 662.265063953512 1184.9134115348686 662.1980761631833 1186.2004097200354 662.1310883728546 1187.466039435565 662.3740556872079 1188.7316691510948 662.6170230015613 1189.9023719384554 663.1558241488707 1191.073074725816 663.6946252961801 1192.080809284001 664.4979451284485 1193.0885438421858 665.3012649607169 1193.874740591325 666.3224144915491 1194.6609373404642 667.3435640223812 1195.1799024885586 668.5231939930666 1195.698867636653 669.702823963752 1195.9204389049119 670.9723742249698 1196.1420101731705 672.2419244861875 1196.053309829072 673.527608717106 1195.9646094849734 674.8132929480246 1195.5707927966841 676.0403871207353 1195.176976108395 677.267481293446 1194.5009317203417 678.3646666369764 1193.8248873322884 679.4618519805066 1192.9059069760688 680.3653600311393 1191.986926619849 681.268868081772 1190.8784214769444 681.9261869091533 1189.7699163340399 682.5835057365346 1189.7704056426069 682.5832904706467 Z" fill="hsl(230, 55%, 40%)"></path><path d="M 896.0201435989151 598.9902469264598 Q 896.0201435989151 598.9902469264598 903.880652983183 612.3191157151949 911.741162367451 625.64798450393 912.4086836540064 627.1497822904644 913.0762049405616 628.6515800769988 913.2292403459046 630.2879056632912 913.3822757512477 631.9242312495837 913.0048024280416 633.5237609148015 912.6273291048354 635.1232905800193 911.7588686096632 636.5185531459792 910.8904081144909 637.9138157119392 909.6218884904483 638.9587268196717 908.3533688664058 640.0036379274043 906.8176044529869 640.5887951081002 905.2818400395679 641.1739522887959 903.6396257762599 641.2380894311697 901.997411512952 641.3022265735434 900.4206876666259 640.838628501858 898.8439638202998 640.3750304301726 897.4978137938805 639.4322359849115 896.1516637674612 638.4894415396503 895.1770298240639 637.166161548106 894.2023958806666 635.8428815565616 893.7013224514434 634.2776637831605 893.2002490222202 632.7124460097594 893.2251986274813 631.0691691685543 893.2501482327424 629.4258923273492 893.7985086422309 627.876607937397 894.3468690517194 626.3273235474447 895.3612267858089 625.0342420933449 896.3755845198982 623.7411606392451 897.7497360560649 622.8396680905821 899.1238875922315 621.9381755419192 900.7139589018981 621.5226584065092 902.3040302115646 621.1071412710992 903.9435404088708 621.2211043027054 905.583050606177 621.3350673343116 907.1003425406764 621.9665785734414 908.6176344751756 622.5980898125712 909.8538472807998 623.681029865785 911.0900600864239 624.7639699189989 911.9157619560956 626.1849546768569 912.7414638257671 627.6059394347149 913.0702035557675 629.2161914179658 913.3989432857679 630.8264434012166 913.1963017395872 632.4573688021486 912.9936601934064 634.0882942030806 912.2808539944218 635.5691347016939 911.5680477954372 637.0499752003071 910.419707940845 638.2256864054928 909.2713680862528 639.4013976106784 907.807726061961 640.1488822488959 906.3440840376693 640.8963668871135 904.7183835499854 641.1373631194247 903.0926830623015 641.378359351736 901.4751353814291 641.0876348090011 899.8575877005568 640.7969102662662 898.4175504956745 640.0049038848534 896.9775132907921 639.2128975034407 895.8657588373839 638.0025325605532 894.7540043839756 636.7921676176658 894.7548401977153 636.793441654524 894.7556760114552 636.7947156913824 885.6557911086138 624.2791875074613 876.5559062057724 611.7636593235402 875.9330707360531 610.5062998385504 875.3102352663337 609.2489403535604 875.0064146213315 607.8790608287463 874.7025939763291 606.5091813039322 874.7354462262064 605.1063992016395 874.7682984760836 603.7036170993468 875.135914246534 602.3494621812704 875.5035300169844 600.9953072631939 876.1845434621571 599.7684830767969 876.8655569073296 598.5416588903998 877.8203874937938 597.5134685150377 878.7752180802578 596.4852781396756 879.9483710094655 595.7154800482738 881.1215239386732 594.945681956872 882.4448155072588 594.4790168506717 883.7681070758443 594.0123517444713 885.1646275156668 593.8759422213708 886.5611479554893 593.7395326982703 887.9497314329711 593.9413068861616 889.3383149104529 594.1430810740527 890.6382568886404 594.671311847655 891.938198866828 595.1995426212575 893.0739466568714 596.0235291831904 894.2096944469149 596.8475157451232 895.115238333894 597.9193679576923 896.0207822208732 598.9912201702614 896.0204629098941 598.9907335483606 Z" fill="hsl(230, 55%, 40%)"></path><path d="M 724.5357138570541 247.3616710726763 Q 724.5357138570541 247.3616710726763 712.7475970272167 259.8629739653902 700.9594801973793 272.3642768581041 689.6430172620242 283.7239204415346 678.3265543266691 295.0835640249651 677.2098214168752 295.93872340222816 676.0930885070812 296.79388277949124 674.7617546314625 297.24768897597573 673.4304207558437 297.7014951724603 672.0238769226153 297.7064345596011 670.617333089387 297.71137394674196 669.2828448091798 297.2669293694016 667.9483565289725 296.8224847920613 666.8256450769945 295.97518971480923 665.7029336250166 295.1278946375572 664.9095471866573 293.9664610786459 664.116160748298 292.80502751973467 663.7351670930871 291.45105787937086 663.354173437876 290.09708823900706 663.4254627020866 288.6923434959501 663.4967519662973 287.28759875289313 664.0128601451481 285.97915605255764 664.5289683239989 284.67071335222215 665.4358587549249 283.5955669907287 666.3427491858508 282.52042062923516 667.5454702013383 281.79113871444304 668.7481912168256 281.0618567996509 670.1208176090654 280.7547953405507 671.4934440013051 280.4477338814504 672.8922614246915 280.59504229386613 674.291078848078 280.74235070628185 675.5696307491305 281.32860576054804 676.8481826501832 281.91486081481423 677.8726043073568 282.87868145199286 678.8970259645305 283.84250208917155 679.5600601598981 285.0829760341261 680.2230943552656 286.3234499790807 680.4553212335481 287.7106992823211 680.6875481118306 289.09794858556154 680.4646534575697 290.48672787884027 680.241758803309 291.87550717211906 679.5870797456446 293.1204108968277 678.9324006879802 294.3653146215364 677.9144822970682 295.3360010290753 676.8965639061561 296.30668743661425 675.6219825062292 296.9015254038778 674.3474011063023 297.49636337114134 672.9496057063897 297.653073205935 671.551810306477 297.80978304072863 670.1771504539317 297.51195718198215 668.8024906013866 297.2141313232357 667.594893545645 296.4929522169782 666.3872964899035 295.77177311072074 665.4731979614767 294.70274839975025 664.5590994330497 293.63372368877975 664.0342057891622 292.3287805425299 663.5093121452747 291.0238373962801 663.4285798890002 289.61960370663485 663.3478476327256 288.2153700169896 663.7197294526072 286.8588694219365 664.0916112724888 285.5023688268834 664.8771710438175 284.33562729680585 665.6627308151463 283.1688857667283 665.6618372142702 283.1698355534988 665.6609436133942 283.1707853402693 676.0699532045894 271.4320079031919 686.4789627957847 259.6932304661146 697.3046933170215 246.35013638617227 708.1304238382584 233.00704230622995 709.1084570491828 232.12978741699519 710.0864902601073 231.25253252776042 711.2460491915331 230.6348366584944 712.4056081229588 230.01714078922842 713.6792991553098 229.69490445287528 714.9529901876608 229.3726681165221 716.2667863382926 229.3646197040908 717.5805824889243 229.35657129165952 718.8581258638337 229.66317857725878 720.1356692387432 229.96978586285803 721.3027089569555 230.5732288166429 722.4697486751677 231.1766717704278 723.4584563334272 232.0418782595717 724.4471639916866 232.9070847487156 725.2000758544409 233.9837689314179 725.9529877171952 235.06045311412018 726.4263445116057 236.28603805509445 726.8997013060164 237.51162299606872 727.0659915129514 238.81487764096167 727.2322817198865 240.1181322858546 727.081840544706 241.42331141347188 726.9313993695254 242.72849054108917 726.472970460399 243.95973707921013 726.0145415512727 245.19098361733106 725.2747688179383 246.2767374593102 724.5349960846038 247.3624913012893 724.535354970829 247.3620811869828 Z" fill="hsl(230, 55%, 40%)"></path><path d="M 467.8994047278291 296.94145125930504 Q 467.8994047278291 296.94145125930504 470.993546969794 305.86477661102776 474.08768921175897 314.78810196275043 480.6930047786552 327.8051382384119 487.29832034555153 340.82217451407337 496.1283446232326 357.1979048845682 504.95836890091357 373.573635255063 505.43044717768726 374.8506952856253 505.90252545446094 376.1277553161877 505.9421106299113 377.4887010296334 505.98169580536177 378.849646743079 505.58464330116976 380.1519867639554 505.1875907969777 381.45432678483184 504.39547211514383 382.56170576916884 503.60335343330996 383.6690847535059 502.4991036089213 384.4655598293238 501.39485378453264 385.2620349051417 500.0940880656963 385.66421492175334 498.79332234686 386.066394938365 497.43223124770697 386.032171541866 496.0711401485539 385.9979481453669 494.79223026645866 385.5309045344046 493.5133203843634 385.0638609234424 492.4504939215807 384.21289668737234 491.38766745879803 383.3619324513022 490.6522026265402 382.2161437702735 489.91673779428237 381.0703550892448 489.58563795463067 379.74970634062004 489.25453811497897 378.4290575919953 489.3624695085468 377.07182104837284 489.4704009021146 375.71458450475046 490.0060630835043 374.46286319052336 490.5417252648939 373.21114187629627 491.4490342623128 372.19599134348636 492.3563432597317 371.18084081067644 493.5403035816438 370.5085475880427 494.72426390355594 369.8362543654089 496.0609145917218 369.5772077308292 497.3975652798878 369.3181610962494 498.74695865441504 369.4994833007459 500.0963520289423 369.6808055052424 501.31720624731264 370.2835120661399 502.538060465683 370.88621862703735 503.5025517689588 371.8472060083109 504.4670430722346 372.80819338958435 505.074188966362 374.0268459587384 505.68133486048936 375.2454985278925 505.86756701008215 376.59422303924373 506.05379915967495 377.9429475505949 505.7996190095103 379.2805321917761 505.54543885934567 380.6181168329573 504.8774591382429 381.80451613894877 504.2094794171401 382.9909154449402 503.1976377782281 383.9019130952256 502.18579613931615 384.812910745511 500.9360326692894 385.3531250456254 499.68626919926254 385.89333934573983 498.32943446333826 386.0062097158586 496.972599727414 386.1190800859773 495.650754680613 385.7927889685541 494.32890963381203 385.4664978511309 493.1804518014677 384.7352080122924 492.03199396912333 384.0039181734539 491.17716718944547 382.94419585236824 490.3223404097676 381.88447353128265 490.32296372264295 381.8855712334277 490.32358703551836 381.88666893557274 480.7233206771367 365.8165686333266 471.1230543187551 349.74646833108045 462.86785040017776 335.82877958919426 454.61264648160045 321.9110908473081 451.2456894804013 313.06639328032963 447.87873247920214 304.2216957133512 447.58860005261886 302.97095219248934 447.2984676260356 301.7202086716274 447.3160983126565 300.4363763855314 447.3337289992774 299.15254409943543 447.6580981027677 297.91023944089386 447.98246720625804 296.66793478235235 448.59472237908255 295.5393605564891 449.206977551907 294.41078633062585 450.0715344946544 293.4615353244739 450.9360914374017 292.512284318322 452.0027020599385 291.7975270449592 453.06931268247524 291.08276977159653 454.27598552530503 290.64404795733356 455.4826583681349 290.20532614307064 456.75926154893716 290.06813832036573 458.0358647297395 289.93095049766083 459.3082020116652 290.10327002921525 460.58053929359085 290.2755895607697 461.7746623740338 290.74740122731316 462.96878545447686 291.2192128938566 464.0152918438962 291.9630949791616 465.06179823331547 292.70697706446657 465.8998649311882 293.67969510678404 466.7379316290609 294.6524131491015 467.3188501595302 295.797432730109 467.8997686899995 296.9424523111164 467.8995867089143 296.94195178521073 Z" fill="hsl(230, 55%, 40%)"></path><path d="M 228.89323991712484 365.5347523674788 Q 228.89323991712484 365.5347523674788 212.53449337885286 372.7785376351644 196.17574684058087 380.0223229028501 178.69815344178687 385.95158953902074 161.22056004299287 391.8808561751914 144.21325692975853 395.5694347623355 127.2059538165242 399.25801334947954 113.41955764961993 401.1516205216557 99.63316148271566 403.0452276938318 98.4675020041151 403.02914656144935 97.30184252551454 403.01306542906684 96.20234036229492 402.6256178636527 95.1028381990753 402.23817029823846 94.18461151796606 401.51992216216763 93.26638483685684 400.80167402609686 92.62557221375846 399.8278260888152 91.98475959066009 398.85397815153345 91.68845427636906 397.7264925491452 91.39214896207802 396.59900694675684 91.47137420121763 395.4359317194593 91.55059944035723 394.27285649216174 91.99706032947611 393.195965923275 92.44352121859498 392.11907535438826 93.21047318474817 391.2411201707463 93.97742515090134 390.3631649871043 94.98456812077694 389.7760673281921 95.99171109065253 389.18896966927986 97.13359692944462 388.95419881496423 98.27548276823673 388.7194279606486 99.43255572719522 388.8615644813499 100.5896286861537 389.00370100205123 101.64074292103803 389.5078631665316 102.69185715592236 390.012025331012 103.52696072887294 390.82542722756455 104.36206430182351 391.638829124117 104.89372164830645 392.67630735945534 105.4253789947894 393.7137855947937 105.59792545028407 394.86671592381026 105.77047190577872 396.0196462528268 105.56584181084695 397.16731656572955 105.36121171591518 398.3149868786323 104.80082989551343 399.3372357907047 104.2404480751117 400.35948470277714 103.38298665376249 401.14928248307774 102.52552523241329 401.9390802633784 101.4607606472797 402.4137348758234 100.3959960621461 402.88838948826844 99.23540944636218 402.99820446963815 98.07482283057826 403.1080194510079 96.93992790918168 402.8414971437646 95.8050329877851 402.57497483652133 94.81465355862926 401.96002019658846 93.82427412947342 401.3450655566556 93.08210318022572 400.44606449716633 92.33993223097801 399.5470634376771 91.92367525593878 398.45814160687326 91.50741828089953 397.3692197760694 91.46065749523655 396.20438757708354 91.41389670957355 395.0395553780977 91.74152797988937 393.9207710496495 92.06915925020519 392.80198672120133 92.73687949601151 391.8463872778097 93.40459974181782 390.89078783441806 94.34249847711767 390.19842479005985 95.28039721241753 389.50606174570163 96.39027619204381 389.1494256938872 97.50015517167009 388.7927896420729 97.49908623880819 388.7929496175474 97.4980173059463 388.79310959302194 110.65541425012793 386.65020215352473 123.81281119430956 384.5072947140275 139.79749543344644 380.59853581299717 155.7821796725833 376.68977691196676 172.22536607420435 370.44390461686305 188.66855247582538 364.19803232175934 204.6153021533737 356.09671566073405 220.56205183092203 347.9953989997087 221.67197121126966 347.62436099620265 222.7818905916173 347.25332299269667 223.94835366618213 347.158696745842 225.11481674074693 347.0640704989874 226.27002862082918 347.2513556906973 227.42524050091146 347.4386408824072 228.5020602177634 347.8969524885399 229.57887993461532 348.35526409467263 230.51472267569932 349.05796502314604 231.45056541678332 349.76066595161944 232.1910399580172 350.66691519145445 232.93151449925108 351.5731644312894 233.4335844255073 352.63029073408677 233.9356543517635 353.6874170368842 234.17013933533838 354.8339801722566 234.40462431891325 355.9805433076289 234.3578960815442 357.14990497227734 234.31116784417512 358.3192666369258 233.9859422332135 359.44346347595877 233.66071662225193 360.56766031499166 233.07589576548753 361.58135395530434 232.49107490872316 362.595047595617 231.68064862182882 363.4393221152063 230.87022233493448 364.2835966347956 229.88129263178223 364.90938275891483 228.89236292862995 365.53516888303403 228.8928014228774 365.5349606252564 Z" fill="hsl(230, 55%, 40%)"></path><path d="M 387.79133428882096 123.22232553583119 Q 387.79133428882096 123.22232553583119 404.5485870780426 115.98096329147036 421.30583986726424 108.73960104710953 435.6201390943223 103.66029357812374 449.93443832138047 98.58098610913797 463.68864183312917 95.61493547689136 477.4428453448779 92.64888484464477 490.3852880809252 91.45555221206257 503.32773081697246 90.26221957948037 504.4914845105641 90.33076127133272 505.65523820415564 90.39930296318506 506.7361830992664 90.83585623210429 507.81712799437713 91.27240950102352 508.7020888751472 92.03126710451491 509.58704975591723 92.79012470800632 510.183370984523 93.79183405466539 510.7796922131288 94.79354340132446 511.0249387995217 95.93322525813039 511.27018538591466 97.07290711493634 511.13867994776064 98.23123649063479 511.0071745096066 99.38956586633323 510.5126857009944 100.44526536951929 510.01819689238215 101.50096487270535 509.2124978221058 102.34350248671784 508.40679875182946 103.18604010073032 507.37424632523084 103.72720191497382 506.3416938986322 104.2683637292173 505.1903966273435 104.45148995888763 504.0390993560548 104.63461618855797 502.889598368293 104.44053346906804 501.74009738053115 104.24645074957813 500.7127457331536 103.69547959289142 499.68539408577607 103.14450843620469 498.88775576745775 102.29433566786852 498.0901174491395 101.44416289953236 497.6057054023644 100.38380183281537 497.1212933555893 99.32344076609837 497.00082564952714 98.16391148459394 496.880357943465 97.00438220308952 497.1364475787409 95.8670877286572 497.3925372140167 94.72979325422487 497.99837153821613 93.73380861855429 498.60420586241554 92.7378239828837 499.4963538618701 91.98742904024397 500.38850186132464 91.23703409760425 501.4735554049872 90.8107953965748 502.55860894864986 90.38455669554534 503.7229626440727 90.32710154064003 504.88731633949556 90.26964638573472 506.00906204740835 90.5869903468388 507.13080775532114 90.9043343079429 508.0924984039933 91.56325138855814 509.0541890526655 92.2221684691734 509.7551353773194 93.15366987702215 510.4560817019733 94.08517128487091 510.8228944373858 95.19172857665893 511.1897071727983 96.29828586844695 511.1839809287426 97.46404220362126 511.1782546846868 98.62979853879558 510.80058900042707 99.73269892133365 510.42292331616727 100.83559930387172 509.7128598885395 101.76016977258439 509.0027964609118 102.68474024129705 508.03467911822725 103.3341780240472 507.06656177554265 103.98361580679736 505.9417526591385 104.28992459629613 504.8169435427344 104.5962333857949 504.81801859377794 104.59612169483964 504.81909364482146 104.59601000388436 492.8313644692238 105.99654337464563 480.8436352936261 107.39707674540689 468.24412763803934 110.53424023867433 455.6446199824525 113.67140373194175 442.1560065737074 119.15195347406893 428.6673931649623 124.63250321619613 412.3115035591644 132.7362472874481 395.95561395336654 140.83999135870008 394.8422216681545 141.20047416015842 393.7288293829424 141.56095696161677 392.5615204302343 141.64450359437024 391.39421147752614 141.72805022712373 390.2408299084991 141.52980495695127 389.0874483394721 141.3315596867788 388.01502874510936 140.86304453809737 386.9426091507467 140.3945293894159 386.0134806082602 139.6829744846799 385.08435206577366 138.97141957994393 384.3525155697075 138.0581805236489 383.6206790736413 137.1449414673539 383.12866899553205 136.0830957563601 382.63665891742284 135.02125004536632 382.41307090612725 133.87251220228728 382.1894828948316 132.72377435920822 382.2473118960713 131.5549090814569 382.30514089731105 130.38604380370563 382.64102588681703 129.2649855961439 382.976910876323 128.14392738858214 383.57133020272363 127.13583220690612 384.1657495291243 126.12773702523009 384.98415551324047 125.29119540876394 385.8025614973567 124.4546537922978 386.797388344939 123.8382855790953 387.7922151925213 123.22191736589279 387.79177474067114 123.22212145086199 Z" fill="hsl(230, 55%, 40%)"></path><path d="M 773.3898452781384 106.68326384719596 Q 773.3898452781384 106.68326384719596 787.0752256218691 108.39958039302165 800.7606059655999 110.11589693884734 814.7848227681338 112.22366321772884 828.8090395706679 114.33142949661033 847.0727393859991 118.19949440058517 865.3364392013303 122.06755930456 876.283409980961 124.40479974142607 887.2303807605916 126.74204017829216 888.3823782700229 127.19208997530625 889.5343757794542 127.64213977232033 890.4823600664245 128.43647526390168 891.4303443533948 129.23081075548302 892.0750612128147 130.28626480597882 892.7197780722347 131.34171885647464 892.9937254787344 132.5477851481852 893.267672885234 133.75385143989578 893.1421684730376 134.98425451370844 893.0166640608413 136.21465758752106 892.5048481750359 137.34057391681273 891.9930322892305 138.4664902461044 891.1484921881663 139.37003609398522 890.303952087102 140.273581941866 889.2151113422971 140.8601558195499 888.1262705974922 141.4467296972338 886.9071311223538 141.6549171648868 885.6879916472155 141.86310463253977 884.4661976666123 141.67110840734244 883.244403686009 141.47911218214514 882.1478773522324 140.90703431955777 881.0513510184556 140.3349564569704 880.1948989281068 139.44269366021973 879.3384468377578 138.55043086346905 878.8117397507776 137.4314032829094 878.2850326637974 136.31237570234975 878.14321695123 135.0837458210603 878.0014012386625 133.85511593977085 878.2593250430493 132.6455216306494 878.5172488474361 131.43592732152794 879.1479074783725 130.37201342804138 879.7785661093089 129.30809953455486 880.7159294416583 128.50125812219724 881.6532927740077 127.69441670983964 882.7992186194331 127.22912428747026 883.9451444648586 126.76383186510087 885.179654084849 126.68880467216707 886.4141637048393 126.61377747923325 887.6080036163028 126.93687088264042 888.8018435277663 127.2599642860476 889.8300183768295 127.94735032117069 890.8581932258927 128.63473635629376 891.6130528344469 129.61444552380306 892.367912443001 130.59415469131233 892.7704228107671 131.7636111827515 893.1729331785331 132.93306767419065 893.1809513637534 134.1698290861995 893.1889695489737 135.40659049820835 892.8016560455391 136.58116758447625 892.4143425421045 137.75574467074412 891.6722491760654 138.74515890028056 890.9301558100263 139.73457312981702 889.9109799527008 140.43523257160956 888.8918040953753 141.1358920134021 887.7022537280615 141.47443743893893 886.5127033607477 141.81298286447577 885.2773247209141 141.75396847833588 884.0419460810806 141.69495409219599 884.0430675496325 141.69519322479874 884.0441890181845 141.6954323574015 873.2071285314358 139.39104367721382 862.3700680446872 137.08665499702613 844.5798101583352 133.83388623920632 826.7895522719834 130.58111748138649 812.9906679163753 129.2362338522022 799.1917835607672 127.89135022301788 785.4175096686581 127.18475455265705 771.6432357765491 126.47815888229623 770.4715808302194 126.22984783906904 769.2999258838897 125.98153679584185 768.2217458346647 125.46003754473907 767.1435657854398 124.9385382936363 766.2215245084387 124.17416039563457 765.2994832314375 123.40978249763283 764.5871698090014 122.44695163207814 763.8748563865653 121.48412076652345 763.4136705082741 120.37879670856026 762.9524846299829 119.27347265059707 762.7692304407517 118.08989688640763 762.5859762515204 116.90632112221819 762.6913044934373 115.71328313082725 762.7966327353543 114.52024513943631 763.1844217260505 113.38708434495817 763.5722107167466 112.25392355048004 764.2199221418623 111.2464993115311 764.8676335669782 110.23907507258215 765.7376224080533 109.41593893326376 766.6076112491286 108.59280279394535 767.6493137138436 108.00179546534955 768.6910161785588 107.41078813675375 769.8438884707203 107.08625899258692 770.9967607628819 106.76172984842007 772.193797890702 106.7225405377891 773.390835018522 106.68335122715813 773.3903401483302 106.68330753717704 Z" fill="hsl(230, 55%, 40%)"></path><path d="M 689.3823780777637 426.86266189182925 Q 689.3823780777637 426.86266189182925 684.6031091301959 435.57808512260306 679.8238401826279 444.2935083533768 676.2282952079788 451.02761418741466 672.6327502333297 457.76172002145256 668.175093126973 463.54203189481814 663.7174360206163 469.32234376818366 656.6737392724956 476.2984576966861 649.6300425243747 483.2745716251885 647.9538021505034 484.28674727670455 646.277561776632 485.29892292822063 644.3658736506264 485.7228685018597 642.4541855246209 486.1468140754987 640.5072038979108 485.93814235778984 638.5602222712006 485.729470640081 636.7817966340556 484.91002961495246 635.0033709969106 484.0905885898239 633.5797029829985 482.74617394891794 632.1560349690865 481.401759308012 631.2361829952758 479.6731316191226 630.3163310214652 477.94450393023317 629.9966038322314 476.0126509687003 629.6768766429974 474.0807980071675 629.9907497594529 472.1479852880235 630.3046228759083 470.21517256887944 631.2192336999058 468.4837660940315 632.1338445239031 466.7523596191836 633.5534330607361 465.4036381035953 634.9730215975692 464.054916588007 636.7489565526964 463.2300915303884 638.5248915078237 462.40526647276977 640.4712320226421 462.1906972743861 642.4175725374605 461.9761280760024 644.3305362462845 462.3942801885653 646.2434999551085 462.8124323011281 647.9227990526508 463.8195250880707 649.6020981501932 464.8266178750133 650.8719095776494 466.3172084556961 652.1417210051056 467.80779903637887 652.8690951708232 469.6258221835267 653.5964693365408 471.44384533067443 653.7052499733611 473.39895354086934 653.8140306101815 475.3540617510642 653.2928283567142 477.2415546786003 652.7716261032467 479.1290476061365 651.6750109730137 480.7513042432512 650.5783958427808 482.3735608803658 649.0211837293957 483.56073052891884 647.4639716160108 484.74790017747193 645.6092030388094 485.3756858618776 643.754434461608 486.00347154628327 641.7963041802344 486.00614393966487 639.8381738988609 486.00881633304647 637.9816986706712 485.3860956351116 636.1252234424815 484.76337493717665 634.564776713929 483.5804601693813 633.0043299853764 482.39754540158594 631.9032909408586 480.77828805237743 630.8022518963406 479.159030703169 630.2758996144644 477.272967444452 629.7495473325882 475.38690418573503 629.8529910362097 473.43150633856953 629.956434739831 471.476108491404 630.6788438458744 469.65610672656305 631.4012529519179 467.8361049617221 632.666991036283 466.34205394441847 633.9327291206481 464.84800292711475 633.9313471279854 464.84918022562886 633.9299651353227 464.85035752414296 636.4544577679844 462.8943309963514 638.978950400646 460.9383044685598 645.6920263226718 453.937246061902 652.4051022446977 446.9361876552442 655.815808032988 440.46543068486926 659.2265138212783 433.99467371449424 663.3312475592572 424.94207402656684 667.4359812972363 415.8894743386395 668.2519564049715 414.65612450141634 669.0679315127065 413.42277466419324 670.1553635118495 412.42054772149936 671.2427955109924 411.4183207788054 672.5384828026603 410.70546620763946 673.8341700943281 409.99261163647355 675.2628072722514 409.6105605780051 676.6914444501748 409.2285095195367 678.1699990544485 409.1994667992346 679.6485536587222 409.17042407893246 681.0910920262763 409.4960776610651 682.5336303938305 409.82173124319775 683.8563121269656 410.48315412627085 685.1789938601005 411.14457700934395 686.3049446343405 412.10332726431653 687.4308954085805 413.0620775192891 688.2946749120241 414.2624325362955 689.1584544154678 415.4627875533018 689.7098597427904 416.83498264235504 690.261265070113 418.20717773140825 690.4682485177831 419.67146084946035 690.6752319654531 421.1357439675124 690.5257636457668 422.607010910943 690.3762953260805 424.0782778543737 689.8790623448008 425.4710185193036 689.381829363521 426.86375918423346 689.3821037206424 426.86321053803135 Z" fill="hsl(230, 55%, 40%)"></path><path d="M 457.58801939297746 655.2254731179321 Q 457.58801939297746 655.2254731179321 465.2734435912315 664.0765592949331 472.9588677894855 672.9276454719339 479.2744313788546 678.6844804455575 485.5899949682237 684.4413154191811 494.0073971476496 688.4556460231581 502.42479932707545 692.4699766271351 508.60087878708964 694.4852530176279 514.7769582471038 696.5005294081205 516.1804925417049 697.2807161962501 517.584026836306 698.0609029843795 518.6649634416959 699.2484112982961 519.7459000470859 700.4359196122127 520.391064615341 701.9064170179777 521.036229183596 703.3769144237426 521.1780728141127 704.9764394547988 521.3199164446296 706.5759644858548 520.9435880718501 708.1370464492168 520.5672596990705 709.6981284125789 519.7121610029657 711.0573216145972 518.8570623068608 712.4165148166155 517.6127223466369 713.4315113702467 516.368382386413 714.4465079238779 514.8650838843795 715.0110374220237 513.3617853823459 715.5755669201695 511.75692408849784 715.6305229753527 510.1520627946497 715.6854790305359 508.6136681100952 715.2251077292718 507.0752734255407 714.7647364280077 505.7644156798494 713.837238767065 504.4535579341581 712.9097411061223 503.5074842793367 711.6122263354371 502.56141062451536 710.314711564752 502.07917522196294 708.7830298233259 501.5969398194105 707.2513480818998 501.629032843072 705.6458668523846 501.6611258667335 704.0403856228695 502.2041871685599 702.5291992138016 502.74724847038624 701.0180128047335 503.74441938872195 699.7593428320565 504.74159030705766 698.5006728593796 506.0884667835254 697.6263024014895 507.4353432599932 696.7519319435995 508.990906971966 696.3534078182488 510.5464706839388 695.9548836928982 512.1478537001442 696.0739314812113 513.7492367163495 696.1929792695242 515.2287738122666 696.8171346366391 516.7083109081836 697.441290003754 517.9110941593101 698.5052037179728 519.1138774104367 699.5691174321915 519.9139750928757 700.9613974467895 520.7140727753147 702.3536774613874 521.0277144505095 703.9285516913098 521.3413561257044 705.5034259212324 521.1357034274688 707.0960046188802 520.9300507292332 708.688583316528 520.2266355493596 710.1321230718574 519.523220369486 711.5756628271869 518.3956904629906 712.7190246467574 517.2681605564952 713.8623864663278 515.8345686022271 714.5858600658123 514.400976647959 715.3093336652967 512.8114201019616 715.5371711678505 511.22186355596426 715.7650086704043 509.64276940820565 715.4733554293668 508.06367526044704 715.1817021883293 508.065076348416 715.1822056845571 508.06647743638507 715.1827091807849 501.1545541740167 712.4968857966307 494.24263091164835 709.8110624124768 483.26663112021083 704.6642431560716 472.2906313287734 699.5174238996665 465.2801777291166 693.2202493212881 458.2697241294598 686.9230747429098 449.80240021980364 678.8137666328014 441.33507631014754 670.7044585226929 440.5270342161708 669.6195772877956 439.71899212219415 668.5346960528982 439.1940689265889 667.2879583265956 438.66914573098364 666.0412206002928 438.45784999454185 664.7050868378153 438.24655425810005 663.3689530753379 438.3611664989514 662.0210794337388 438.4757787398027 660.6732057921396 438.9096376891239 659.3919307507981 439.343496638445 658.1106557094566 440.07138639371664 656.9704470339759 440.79927614898827 655.8302383584953 441.77889172343424 654.897365030667 442.7585072978802 653.9644917028386 443.9329133882867 653.2931723643068 445.1073194786932 652.621853025775 446.4082595479066 652.2511047880369 447.7091996171199 651.8803565502989 449.06106296719304 651.8317273183515 450.41292631726617 651.783098086404 451.7371425867758 652.059414193493 453.0613588562854 652.3357303005819 454.28096453342954 652.9209322415804 455.5005702105737 653.5061341825789 456.54468175609384 654.3662099931806 457.58879330161403 655.2262858037824 457.58840634729575 655.2258794608572 Z" fill="hsl(230, 55%, 40%)"></path><path d="M 925.930699854853 743.6741974877085 Q 925.930699854853 743.6741974877085 916.2267112224752 752.1256485790967 906.5227225900975 760.5770996704849 897.2392238132059 767.692615393976 887.9557250363142 774.8081311174669 877.2341938388424 779.8329493698207 866.5126626413705 784.8577676221745 856.7892395882602 787.5521465048721 847.06581653515 790.2465253875697 845.6397410602569 790.3799413234387 844.213665585364 790.5133572593077 842.8196441294225 790.1844267918682 841.425622673481 789.8554963244288 840.2096096509141 789.0986585604512 838.9935966283472 788.3418207964736 838.0829089236138 787.236316849632 837.1722212188804 786.1308129027902 836.6622080750643 784.7923893281436 836.1521949312482 783.453965753497 836.0962548591374 782.0227558526203 836.0403147870267 780.5915459517437 836.4443047269378 779.2173977790616 836.8482946668491 777.8432496063795 837.6699167654308 776.6700368383115 838.4915388640123 775.4968240702436 839.6447690706556 774.6473823933047 840.7979992772988 773.7979407163659 842.162094084945 773.3612068983624 843.5261888925911 772.9244730803589 844.9583272147936 772.9461732673223 846.390465536996 772.9678734542856 847.7407021133723 773.4457356309125 849.0909386897487 773.9235978075394 850.2179033943245 774.8075896777935 851.3448680989003 775.6915815480477 852.1305674296167 776.8891489297623 852.9162667603331 778.086716311477 853.2784377898595 779.4724735836595 853.640608819386 780.8582308558421 853.5413321453273 782.2870888662906 853.4420554712686 783.7159468767392 852.8917253876052 785.0383038145778 852.3413953039417 786.3606607524165 851.397631515706 787.4380654971852 850.4538677274705 788.515470241954 849.2154825524206 789.2351182324683 847.9770973773705 789.9547662229827 846.5737500702356 790.2413101246672 845.1704027631008 790.5278540263516 843.749024157386 790.3512926170596 842.3276455516711 790.1747312077675 841.037054362602 789.5535505136595 839.746463173533 788.9323698195516 838.7217846392883 787.9316076232765 837.6971061050436 786.9308454270015 837.0456243386475 785.6552817946849 836.3941425722514 784.3797181623685 836.1840678866201 782.96290494303 835.9739932009888 781.5460917236917 836.2273204711623 780.1363696353985 836.4806477413357 778.7266475471054 837.1708535352548 777.4716148646323 837.8610593291737 776.2165821821592 838.9158789180185 775.2476411586574 839.9706985068632 774.2787001351558 841.2796920012362 773.6972991515617 842.5886854956092 773.1158981679675 842.5874006985581 773.116233952798 842.586115901507 773.1165697376285 850.8795547150139 771.0993107638427 859.1729935285209 769.0820517900569 868.0401988060398 764.9210072723301 876.9074040835588 760.7599627546033 885.2102209957541 753.8629769522154 893.5130379079493 746.9659911498276 902.3847359210795 737.649436870122 911.2564339342096 728.3328825904165 912.2809254489406 727.5663645093618 913.3054169636716 726.7998464283072 914.4835822396249 726.300787899798 915.661747515578 725.8017293712888 916.925111531559 725.5991357004501 918.18847554754 725.3965420296114 919.4636115275812 725.5021879701112 920.7387475076223 725.6078339106109 921.9515444886515 726.0155793154236 923.1643414696808 726.4233247202362 924.2443116341778 727.1094714072763 925.3242817986747 727.7956180943162 926.2086572299366 728.7202871858942 927.0930326611985 729.6449562774724 927.7304134176084 730.7544059625407 928.3677941740181 731.863855647609 928.7211356560658 733.093604658344 929.0744771381136 734.3233536690791 929.1232431222611 735.6019289351975 929.1720091064087 736.8805042013158 928.9133653113661 738.1335948682772 928.6547215163235 739.3866855352385 928.103700331611 740.5414619146027 927.5526791468984 741.6962382939669 926.7413059496611 742.6855847283084 925.9299327524237 743.6749311626501 925.9303163036384 743.6745643251793 Z" fill="hsl(230, 55%, 40%)"></path><path d="M 1164.2832835204163 270.75349375815017 Q 1164.2832835204163 270.75349375815017 1160.9927470552736 278.07357716621175 1157.702210590131 285.3936605742734 1153.1246998128786 293.6035964662541 1148.5471890356262 301.81353235823485 1140.3131279211013 311.45397434245785 1132.0790668065765 321.0944163266808 1123.161374298968 330.0352303498323 1114.2436817913597 338.9760443729838 1104.2411089657985 344.1622147801195 1094.2385361402373 349.34838518725525 1094.2351631606598 349.3446942512262 1094.2317901810825 349.3410033151972 1094.2284172015052 349.3373123791682 1094.2250442219276 349.3336214431392 1100.0785189618723 340.0296667988855 1105.931993701817 330.7257121546319 1114.4975854281424 322.0511839003884 1123.0631771544677 313.376655646145 1134.8723219662504 296.9033844377913 1146.6814667780332 280.4301132294376 1149.977045730371 273.1144022649406 1153.2726246827087 265.7986913004436 1153.649066895804 265.17591162686494 1154.025509108899 264.55313195328637 1154.5400574851274 264.0385416015079 1155.0546058613556 263.52395124972946 1155.6773548249148 263.14745823517444 1156.3001037884737 262.7709652206194 1156.9948591403418 262.5544513349832 1157.68961449221 262.33793744934695 1158.4159970186936 262.2939864898356 1159.1423795451772 262.2500355303243 1159.858171859708 262.3812019287696 1160.5739641742389 262.5123683272149 1161.2375643938653 262.81102868637646 1161.9011646134916 263.109689045538 1162.4740042622695 263.5584852113088 1163.0468439110475 264.00728137707955 1163.4956295216753 264.5801292952184 1163.9444151323032 265.1529772133572 1164.2430632640053 265.8165829359467 1164.5417113957074 266.48018865853624 1164.672864605037 267.1959833898002 1164.8040178143667 267.91177812106406 1164.7600534706355 268.6381598375898 1164.7160891269043 269.3645415541156 1164.4995624398357 270.05929291640985 1164.283035752767 270.7540442787041 1164.2831596365918 270.75376901842714 Z" fill="hsl(282, 100%, 75%)"></path><path d="M 920.7593306096281 403.92627514649456 Q 920.7593306096281 403.92627514649456 927.84943403733 414.3842393692079 934.9395374650318 424.8422035919212 942.9828070219257 434.96367497095264 951.0260765788198 445.08514634998414 957.7409228202969 456.69714709968923 964.4557690617739 468.30914784939426 964.4520865791704 468.3125300560519 964.448404096567 468.31591226270956 964.4447216139635 468.3192944693672 964.44103913136 468.32267667602486 953.1686451071874 460.35051061763306 941.8962510830149 452.3783445592413 933.5326151402903 441.95427368495405 925.1689791975658 431.5302028106667 917.9891870869376 421.1321640273986 910.8093949763094 410.73412524413044 910.4743623134239 410.08935373080095 910.1393296505383 409.44458221747146 909.9683417833872 408.73836671290616 909.7973539162361 408.03215120834085 909.8003486676921 407.3055369908464 909.803343419148 406.57892277335196 909.9801467341156 405.874140695389 910.1569500490833 405.16935861742604 910.4972861105898 404.52737064647977 910.8376221720962 403.88538267553355 911.3217106322559 403.3435011826391 911.8057990924157 402.8016196897447 912.4055047071795 402.3913388527293 913.0052103219434 401.9810580157139 913.6856781728043 401.72622337610187 914.366146023665 401.47138873648976 915.0878272871591 401.3868112955086 915.8095085506532 401.30223385452746 916.5304590778383 401.39282925702094 917.2514096050232 401.48342465951436 917.9297277173855 401.7439274964329 918.6080458297479 402.0044303333514 919.2043076467262 402.41970016757364 919.8005694637046 402.8349700017959 920.2801202204812 403.38087133104546 920.7596709772577 403.926772660295 920.7595007934428 403.9265239033948 Z" fill="hsl(282, 100%, 75%)"></path><path d="M 778.5403169148757 43.90392361534075 Q 778.5403169148757 43.90392361534075 767.744754392394 44.61274117330588 756.9491918699125 45.32155873127101 743.5393177058909 45.642876180827976 730.1294435418694 45.96419363038494 713.1918371025388 45.466524606251824 696.2542306632083 44.9688555821187 682.0977548636235 41.3632896466189 667.9412790640388 37.757723711119105 667.9415285127291 37.75272993746074 667.9417779614193 37.74773616380239 667.9420274101096 37.74274239014403 667.9422768587999 37.73774861648567 682.2596505259877 35.554506747429905 696.5770241931755 33.37126487837414 713.1957300240326 33.8073813144386 729.8144358548897 34.24349775050305 742.9797010635334 33.84839332438958 756.1449662721773 33.453288898276114 766.9372123739633 32.69852602525674 777.7294584757493 31.943763152237374 778.4509351355655 31.98213949271432 779.1724117953815 32.02051583319127 779.8637379804757 32.23044301097192 780.5550641655698 32.44037018875257 781.1760599655825 32.80964722640092 781.7970557655952 33.17892426404927 782.3116288754525 33.686088762786795 782.8262019853097 34.19325326152432 783.2044453916893 34.808828796855366 783.582688798069 35.42440433218642 783.8026189764206 36.112613625074864 784.0225491547723 36.80082291796331 784.0713837527967 37.52166721197109 784.1202183508211 38.242511505978875 783.9951190993867 38.954095296869546 783.8700198479522 39.66567908776022 783.57825752143 40.326645092173585 783.286495194908 40.98761109658695 782.845027033424 41.55954393929116 782.4035588719399 42.13147678199537 781.8380430257819 42.5811356993003 781.2725271796237 43.03079461660523 780.6158314563409 43.33204541110998 779.9591357330579 43.633296205614734 779.2494273189421 43.76863016698849 778.5397189048264 43.90396412836224 778.540017909851 43.903943871851496 Z" fill="hsl(282, 100%, 75%)"></path><path d="M 311.94370849660896 84.16092062944756 Q 311.94370849660896 84.16092062944756 302.762664172713 93.82533485573352 293.581619848817 103.48974908201947 283.7325418012016 114.42499995095764 273.8834637535861 125.36025081989582 264.00817760084135 136.40802327421807 254.13289144809656 147.45579572854032 242.49448376711194 156.83791665034224 230.85607608612733 166.22003757214415 230.8522475695513 166.21682160248832 230.84841905297532 166.21360563283247 230.84459053639932 166.2103896631766 230.8407620198233 166.2071736935208 238.1812409240879 152.99549253952566 245.52171982835247 139.78381138553053 255.37347664177616 128.69015115904187 265.2252334551999 117.59649093255321 275.1253304390557 106.5072456124617 285.02542742291155 95.41800029237018 294.13912606471376 85.689986975016 303.25282470651604 75.96197365766182 303.8065134475712 75.50155667113071 304.3602021886263 75.0411396845996 305.0079891575913 74.7266129507648 305.6557761265563 74.41208621692999 306.3600119143587 74.26173004433994 307.06424770216114 74.11137387174989 307.7840020917256 74.13392696821998 308.50375648129 74.15648006469009 309.1971973136774 74.35063164319382 309.89063814606476 74.54478322169757 310.51746260751565 74.89924918337016 311.1442870689665 75.25371514504275 311.66806409233004 75.74789391153725 312.19184111569365 76.24207267803175 312.5821287557625 76.84724255622062 312.9724163958313 77.4524124344095 313.20653111662705 78.13340092253861 313.4406458374227 78.81438941066772 313.50498088037284 79.53161742581091 313.5693159233229 80.2488454409541 313.4601321327084 80.96062765717241 313.35094834209383 81.67240987339073 313.07459148495514 82.33737747483465 312.7982346278165 83.00234507627856 312.37076657767517 83.58185011470877 311.94329852753384 84.16135515313897 311.9435035120714 84.16113789129327 Z" fill="hsl(282, 100%, 75%)"></path><path d="M 375.4829008587619 287.0915428907534 Q 375.4829008587619 287.0915428907534 376.5753545232262 294.9587842375154 377.66780818769047 302.8260255842774 379.5229392066862 312.51370708002935 381.37807022568194 322.2013885757813 380.72783224263037 333.7161764572842 380.07759425957886 345.230964338787 380.0727036995153 345.2320047340313 380.0678131394517 345.2330451292756 380.0629225793881 345.23408552451986 380.0580320193245 345.2351259197642 374.7542801485837 334.87525674284564 369.4505282778428 324.515387565927 367.4868146501787 314.5184715334274 365.5231010225146 304.5215555009277 364.42018553109506 296.6553139222747 363.3172700396756 288.7890723436216 363.30408890224413 288.0488605613468 363.2909077648127 287.308648779072 363.45525947440933 286.58679301747196 363.6196111840059 285.86493725587195 363.9519436115469 285.2033918057272 364.2842760390878 284.5418463555825 364.7652740082698 283.97906026953797 365.2462719774517 283.4162741834935 365.8479798637063 282.9849566153125 366.44968774996084 282.5536390471316 367.13713426266776 282.27885819414223 367.82458077537467 282.0040773411529 368.5578114909159 281.90180347944136 369.2910422064571 281.7995296177299 370.0274417211947 281.87570690894427 370.7638412359322 281.9518842001586 371.46060997547 282.2020852165542 372.1573787150077 282.45228623294986 372.7740204474662 282.86196927969826 373.39066217992473 283.27165232644666 373.8913376588407 283.8170066056219 374.39201313775663 284.3623608847971 374.74762308077135 285.01169038007015 375.10323302378606 285.6610198753432 375.2931093643032 286.3765855259402 375.48298570482035 287.09215117653713 375.4829432817911 287.09184703364525 Z" fill="hsl(282, 100%, 75%)"></path><path d="M 485.51088726148663 492.01400601824434 Q 485.51088726148663 492.01400601824434 480.9326046835297 499.3290275705353 476.3543221055728 506.64404912282623 471.30799973230256 514.6205744140642 466.2616773590323 522.5970997053022 461.0415289762941 530.544631757373 455.8213805935559 538.4921638094438 448.6983586270047 547.4654212361279 441.5753366604536 556.4386786628119 434.10875001783654 564.7065165780293 426.6421633752195 572.9743544932468 418.66355461845245 577.5643384616139 410.6849458616854 582.1543224299811 410.68119467909594 582.1510165822563 410.67744349650644 582.1477107345313 410.67369231391694 582.1444048868063 410.6699411313275 582.1410990390815 414.26318175310627 573.6003753860455 417.856422374885 565.0596517330094 425.04846948469253 557.055647838388 432.2405165945 549.0516439437666 439.0024107072686 540.4741453175789 445.7643048200372 531.8966466913912 450.908861638202 524.0274940864665 456.0534184563668 516.1583414815417 461.0646299930239 508.1891667329466 466.07584152968104 500.2199919843515 470.64493440948786 492.89922711391296 475.2140272892946 485.5784622434744 475.6738776622537 485.0091473094789 476.13372803521276 484.43983237548343 476.71646537923436 483.99711457884155 477.29920272325603 483.5543967821996 477.9709583165259 483.2640069020531 478.6427139097958 482.97361702190653 479.36444528567074 482.8524325317334 480.0861766615457 482.7312480415603 480.81593675854947 482.78631218962335 481.5456968555533 482.8413763376863 482.24107198256036 483.0694887931128 482.9364471095675 483.2976012485393 483.55702203152424 483.6855041047021 484.177596953481 484.0734069608649 484.6873038267656 484.5985552855383 485.19701070005027 485.12370361021163 485.5662253372391 485.7555757580916 485.9354399744278 486.38744790597156 486.14270360345984 487.0893194381349 486.3499672324919 487.79119097029826 486.3832336815096 488.52226908031844 486.41650013052725 489.25334719033856 486.2738359519507 489.9711415841116 486.13117177337415 490.68893597788457 485.8208686159652 491.35172841151893 485.5105654585563 492.01452084515324 485.51072636002147 492.0142634316988 Z" fill="hsl(282, 100%, 75%)"></path><path d="M 613.5013266121395 602.3454308179812 Q 613.5013266121395 602.3454308179812 624.1091346950211 604.3744432551078 634.7169427779029 606.4034556922345 647.1409870750447 608.8452359976995 659.5650313721866 611.2870163031647 672.8352575316712 614.2016818945859 686.105483691156 617.1163474860072 701.0997137331291 619.9775976730418 716.0939437751022 622.8388478600766 728.90272190336 628.1342251774636 741.7115000316178 633.4296024948505 741.710586659264 633.4345183621131 741.7096732869103 633.4394342293757 741.7087599145566 633.4443500966383 741.7078465422028 633.4492659639009 727.8312637317455 633.7864803307807 713.9546809212882 634.1236946976605 698.8006721168143 631.269757350269 683.6466633123405 628.4158200028775 670.4973033306117 625.5811845839262 657.3479433488827 622.7465491649749 644.9310257981851 620.3824824053156 632.5141082474877 618.0184156456562 621.9000065403304 616.0225886052438 611.285904833173 614.0267615648313 610.6030967172362 613.8093462080499 609.9202886012995 613.5919308512684 609.3093554296138 613.2174218122755 608.6984222579281 612.8429127732824 608.1948714951363 612.3330765350202 607.6913207323445 611.8232402967581 607.3244187724393 611.2077085653491 606.9575168125342 610.5921768339401 606.7485880146642 609.9067243425345 606.5396592167942 609.221271851129 606.5008465325081 608.5057371307331 606.462033848222 607.7902024103372 606.595593072554 607.0861723725197 606.729152296886 606.3821423347022 607.0273209614427 605.7305352383397 607.3254896259995 605.0789281419773 607.7709381539875 604.517615422126 608.2163866819755 603.9563027022747 608.7832255840187 603.5179078805857 609.3500644860621 603.0795130588965 610.0053490585412 602.7895156630041 610.6606336310203 602.4995182671116 611.3662787037943 602.3747729592906 612.0719237765682 602.2500276514694 612.7869172248527 602.2977846348713 613.5019106731372 602.3455416182733 613.5016186426383 602.3454862181272 Z" fill="hsl(282, 100%, 75%)"></path><path d="M 1225.8547656423755 92.86077918097628 Q 1225.8547656423755 92.86077918097628 1220.897945772273 101.63218312105889 1215.9411259021704 110.40358706114151 1211.0624655577647 120.38271068848493 1206.183805213359 130.36183431582836 1201.641813231164 140.5142499419414 1197.099821248969 150.66666556805438 1192.422005780947 160.99758671268177 1187.7441903129252 171.32850785730915 1181.450140396058 178.12720287178604 1175.156090479191 184.92589788626293 1175.1515361077977 184.92383446647747 1175.1469817364043 184.92177104669202 1175.142427365011 184.91970762690656 1175.1378729936175 184.9176442071211 1176.0944574259324 175.71276985751211 1177.0510418582476 166.50789550790313 1181.6831920633767 156.18732287909177 1186.315342268506 145.8667502502804 1190.8994105060892 135.51467516141128 1195.4834787436725 125.16260007254218 1200.471731108251 114.83602008220791 1205.4599834728297 104.50944009187364 1210.3823208292897 95.71789277234322 1215.3046581857495 86.92634545281278 1215.7363665965795 86.33823795603183 1216.1680750074095 85.7501304592509 1216.7279856903867 85.28243118959223 1217.287896373364 84.81473191993356 1217.9434672932866 84.4946235809245 1218.599038213209 84.17451524191543 1219.3121675574093 84.0206025452594 1220.0252969016094 83.86668984860336 1220.754537559096 83.88791820746155 1221.4837782165826 83.90914656631975 1222.1867466860792 84.10428218747793 1222.889715155576 84.29941780863612 1223.5255548766067 84.65711940062417 1224.1613945976374 85.01482099261223 1224.693150535741 85.51429892209727 1225.2249064738448 86.0137768515823 1225.6216729489147 86.62600143783479 1226.0184394239843 87.23822602408725 1226.2571563498468 87.92761474538894 1226.4958732757095 88.61700346669062 1226.562666413418 89.34348901816865 1226.6294595511263 90.06997456964669 1226.5204468803786 90.7913335769154 1226.4114342096307 91.51269258418411 1226.1329515519724 92.18699962784812 1225.8544688943143 92.86130667151214 1225.854617268345 92.86104292624421 Z" fill="hsl(282, 100%, 75%)"></path></svg>